<?xml version="1.0" standalone="no"?><!DOCTYPE svg PUBLIC "-//W3C//DTD SVG 1.1//EN" "http://www.w3.org/Graphics/SVG/1.1/DTD/svg11.dtd"><svg t="1566375825421" class="icon" viewBox="0 0 1024 1024" version="1.1" xmlns="http://www.w3.org/2000/svg" p-id="30719" width="16" height="16" xmlns:xlink="http://www.w3.org/1999/xlink"><defs><style type="text/css"></style></defs><path d="M573.696636 137.035153c-213.499732 0-386.574729 170.813091-386.574728 381.522615v35.578071L113.658856 480.674744a29.252167 29.252167 0 0 0-20.764147-8.61129c-16.209027 0.001957-29.351957 13.140974-29.350001 29.350001a29.246297 29.246297 0 0 0 8.595637 20.754364l125.220799 125.218842c0.665267 0.667223 1.363797 1.301183 2.089721 1.90188 0.168273 0.136967 0.3522 0.256323 0.52243 0.389377 0.567433 0.448077 1.136823 0.894197 1.73752 1.299227 0.242627 0.16436 0.50482 0.29937 0.75136 0.455903 0.549823 0.348287 1.095733 0.700487 1.670993 1.01551 0.285673 0.15262 0.587 0.27589 0.87463 0.420684 0.559607 0.28176 1.111387 0.571347 1.69056 0.81593 0.178057 0.074353 0.367853 0.127183 0.543953 0.19958 0.708313 0.283717 1.42054 0.559607 2.15429 0.78658 0.04109 0.013697 0.084137 0.021523 0.125227 0.033263 0.878543 0.27002 1.77274 0.50482 2.686504 0.69266 0.091963 0.019567 0.18784 0.025437 0.28176 0.04109 1.82557 0.356113 3.705927 0.553737 5.631286 0.553737h0.003914c1.92536 0 3.805717-0.19958 5.631286-0.553737 0.09392-0.01761 0.189797-0.02348 0.28176-0.04109 0.913763-0.18784 1.80796-0.42264 2.686504-0.69266 0.04109-0.01174 0.084137-0.019567 0.125227-0.033263a29.467401 29.467401 0 0 0 2.15429-0.78658c0.178057-0.07044 0.367853-0.12327 0.543953-0.19958 0.579173-0.244583 1.130953-0.53417 1.69056-0.81593 0.28763-0.144793 0.590913-0.268063 0.87463-0.420684 0.57526-0.313067 1.119213-0.667223 1.670993-1.01551 0.24654-0.156533 0.508733-0.291543 0.75136-0.455903 0.600697-0.40503 1.170087-0.853107 1.73752-1.299227 0.17023-0.133053 0.354157-0.25241 0.52243-0.389377 0.725923-0.600697 1.42641-1.234657 2.08972-1.90188l125.2208-125.218842a29.252167 29.252167 0 0 0 8.595637-20.754364c0.001957-16.209027-13.140974-29.348044-29.350001-29.350001a29.248254 29.248254 0 0 0-20.764147 8.61129l-75.985195 75.983239v-43.899775c0-180.502504 148.264463-317.021097 331.159971-317.021097 182.893551 0 323.810731 136.518593 323.810731 317.021097 0 178.559534-147.693117 325.393674-327.870815 328.494991-16.209027 0-29.350001 13.14293-29.35 29.350001 0 16.210984 13.140974 29.350001 29.35 29.350001 208.905478-5.204733 386.574729-173.969194 386.574729-381.395433-0.003913-210.709525-173.080867-381.522615-386.580599-381.522615z" fill="#1296db" p-id="30720"></path></svg>