<?xml version="1.0" encoding="UTF-8"?>
<svg width="126px" height="102px" viewBox="0 0 126 102" version="1.1" xmlns="http://www.w3.org/2000/svg" xmlns:xlink="http://www.w3.org/1999/xlink">
    <!-- Generator: Sketch 55 (78076) - https://sketchapp.com -->
    <title>163</title>
    <desc>Created with Sketch.</desc>
    <defs>
        <polygon id="path-1" points="0 0.0635011176 117.929095 0.0635011176 117.929095 99.8711408 0 99.8711408"></polygon>
        <path d="M45.4093752,2.16276997 C35.2243214,6.43466454 26.4301718,16.3512748 21.8872265,27.4605911 L21.8872265,27.4605911 C9.29425406,35.3456262 -0.121357405,51.578492 0.05644427,66.275377 L0.05644427,66.275377 C0.257596481,82.8590224 12.5906183,91.1940671 27.5968546,84.9008818 L27.5968546,84.9008818 C29.6024687,84.0595112 31.5481592,83.0002236 33.4176088,81.7580415 L33.4176088,81.7580415 C38.3499173,81.568754 43.8733038,80.3079489 49.7024979,77.8630543 L49.7024979,77.8630543 C59.0941962,73.9247061 67.6323339,67.6006677 74.1173123,60.3743866 L74.1173123,60.3743866 C75.7254047,60.0886486 77.3942647,59.5975016 79.1075752,58.8789872 L79.1075752,58.8789872 C91.9199863,53.5055559 102.164964,37.6796166 101.993351,23.5250224 L101.993351,23.5250224 C101.821739,9.37042812 91.2988058,2.25366134 78.4863946,7.62709265 L78.4863946,7.62709265 C76.0157391,8.6633099 73.6390483,10.0892204 71.4184967,11.8150447 L71.4184967,11.8150447 C68.7208064,4.38335463 62.6845521,0.0650415335 55.069464,0.0650415335 L55.069464,0.0650415335 C52.0597768,0.0650415335 48.8036429,0.739361022 45.4093752,2.16276997" id="path-3"></path>
        <linearGradient x1="0.000108683689%" y1="50.0000139%" x2="100.000052%" y2="50.0000139%" id="linearGradient-5">
            <stop stop-color="#14C6FF" offset="0%"></stop>
            <stop stop-color="#148CFF" offset="100%"></stop>
        </linearGradient>
    </defs>
    <g id="Page-1" stroke="none" stroke-width="1" fill="none" fill-rule="evenodd">
        <g id="拓扑" transform="translate(-818.000000, -599.000000)">
            <g id="163" transform="translate(818.000000, 599.000000)">
                <g id="编组">
                    <g>
                        <mask id="mask-2" fill="white">
                            <use xlink:href="#path-1"></use>
                        </mask>
                        <g id="Clip-2"></g>
                        <path d="M103.608116,21.5210199 C103.85182,21.4351325 104.095805,21.3472803 104.337824,21.2706552 C104.487191,21.2232207 104.634593,21.1842064 104.783398,21.1404207 C104.999026,21.0764261 105.215495,21.0099054 105.429438,20.9534892 C105.584701,20.9127909 105.737438,20.8799516 105.891578,20.8429021 C106.093167,20.7943448 106.295318,20.7435421 106.494941,20.7014404 C106.934339,20.6090974 107.368682,20.5349984 107.799095,20.4738106 C107.913085,20.4575313 108.025111,20.4460235 108.137978,20.4322703 C108.468158,20.3912913 108.795249,20.3590133 109.119252,20.3362784 C109.252615,20.327016 109.385698,20.3163503 109.517657,20.3101754 C109.717562,20.3003516 109.915501,20.2967028 110.11316,20.293896 C110.267019,20.2919313 110.42144,20.2885632 110.573614,20.2908086 C110.7738,20.2933347 110.971458,20.3028777 111.169117,20.3127015 C111.317361,20.3199991 111.467008,20.3250513 111.614129,20.3362784 C111.758723,20.3475055 111.901352,20.3640655 112.044542,20.3792221 C112.218616,20.3974662 112.392971,20.4151489 112.564519,20.4390065 C112.707147,20.4589347 112.84753,20.4836343 112.988474,20.5072113 C113.158898,20.5358404 113.329322,20.5644696 113.497501,20.5987123 C113.619633,20.6236926 113.740362,20.6517604 113.861372,20.6795475 C114.034604,20.7196845 114.206994,20.7615055 114.377137,20.807256 C114.498709,20.8400953 114.618876,20.8746187 114.738763,20.9102648 C114.86258,20.9470336 114.984713,20.9874512 115.107126,21.0275882 C115.553543,21.1738214 115.990974,21.3382986 116.415491,21.5269142 C116.477259,21.5544206 116.537343,21.5852952 116.598831,21.6136437 C117.014644,21.8056274 117.42063,22.0147324 117.813139,22.2465724 C117.851042,22.2690266 117.891192,22.2883934 117.929095,22.311409 L94.0887795,7.91038588 C94.0705297,7.89943944 94.05228,7.888493 94.0340303,7.87782724 C94.0146575,7.86603876 93.9927578,7.85761843 93.9733851,7.84582995 C93.5803141,7.61398998 93.1740472,7.40460425 92.7579535,7.21233987 C92.7169618,7.19353445 92.67962,7.16855411 92.6380668,7.14974869 C92.6178518,7.140767 92.5953906,7.13487276 92.5751755,7.12561039 C92.1506588,6.9372755 91.713227,6.77307891 91.2665299,6.62656503 C91.2230114,6.61225046 91.1825812,6.59176097 91.1385011,6.57772707 C91.0596061,6.55274674 90.9781843,6.53309928 90.898447,6.50924166 C90.7782796,6.47359556 90.6575507,6.43907218 90.5359795,6.40623286 C90.3663974,6.36048236 90.1951308,6.31894203 90.0227411,6.27908576 C89.9008891,6.25101797 89.7790371,6.2226695 89.6557813,6.19740848 C89.6029974,6.18674272 89.5518982,6.17270882 89.4991144,6.16260442 C89.3842815,6.14071154 89.2660795,6.12611629 89.1504043,6.10674951 C89.0083372,6.08289189 88.8668317,6.05791155 88.72308,6.03798342 C88.5515326,6.0141258 88.3774583,5.99616241 88.2036648,5.97819902 C88.0607554,5.96304241 87.9186884,5.94648242 87.7740944,5.9352553 C87.7356296,5.93244852 87.6980071,5.92655428 87.6592615,5.92402818 C87.5494824,5.9161692 87.4363341,5.91701123 87.3257127,5.91167835 C87.1291772,5.9021353 86.9329225,5.89231158 86.7338602,5.88978547 C86.581124,5.88754005 86.4264225,5.89090819 86.271721,5.89315361 C86.074624,5.89596039 85.8769655,5.8996092 85.6773416,5.90915225 C85.6166963,5.91195903 85.5577357,5.91055564 85.4970904,5.91392378 C85.4249338,5.91813394 85.3502504,5.9302031 85.2780938,5.9352553 C84.9546525,5.95827089 84.6284036,5.99026817 84.2996278,6.03096647 C84.1853565,6.04500037 84.072489,6.05650816 83.9576561,6.07278748 C83.5275241,6.13397527 83.0937422,6.20835492 82.6546258,6.30041728 C82.638903,6.30378542 82.6237417,6.30546948 82.6080188,6.30855694 C82.4218717,6.34813253 82.2331976,6.3980932 82.0456466,6.44328235 C81.893472,6.48005116 81.7427012,6.51204844 81.5896843,6.55218538 C81.3709684,6.61000504 81.1502871,6.67764842 80.9298866,6.74304637 C80.7855734,6.78570942 80.6429448,6.82332026 80.49807,6.86935144 C80.253243,6.94709923 80.0061698,7.03579345 79.7596582,7.12280361 C79.6369639,7.16602801 79.5153926,7.20391953 79.3924176,7.24967003 C79.0218078,7.38720222 78.6489519,7.53483881 78.2738499,7.69398319 C77.2038546,8.14812008 76.1554782,8.6895478 75.1256322,9.28458501 L63.7802003,2.43127205 C63.7583007,2.41808019 63.7361202,2.405169 63.7142206,2.39197714 C63.4393516,2.22749987 63.1588674,2.07256566 62.873891,1.92492907 C62.8011729,1.88731822 62.7259278,1.85419823 62.6526482,1.8177101 C62.4631318,1.72312164 62.2744578,1.62741046 62.0807299,1.54040031 C62.0431074,1.52327895 62.0035196,1.50924506 61.9653355,1.49240438 C61.8513449,1.44216303 61.7348275,1.39641253 61.6191523,1.34869728 C61.4209322,1.26673933 61.2215891,1.18674612 61.0188768,1.11264714 C60.8925326,1.06605461 60.7645037,1.02226885 60.6364749,0.97904445 C60.5328726,0.943679031 60.4315165,0.904103443 60.3270719,0.870983448 C60.2341387,0.841512266 60.1383978,0.818215998 60.0446223,0.790428883 C59.9048014,0.748888549 59.7641381,0.708470928 59.6223518,0.670018052 C59.4232894,0.616408567 59.2222617,0.567570608 59.0195494,0.520978072 C58.8780439,0.488138754 58.7368191,0.455018759 58.5939097,0.425828255 C58.5335452,0.413478426 58.4745846,0.397479784 58.4136586,0.385691311 C58.2786106,0.359588264 58.139632,0.34246691 58.0031802,0.31945132 C57.8355635,0.291383527 57.6685083,0.261912345 57.4989263,0.238335399 C57.2998639,0.210548284 57.0982747,0.189778117 56.8966854,0.168727273 C56.7259803,0.150763885 56.5563983,0.13111643 56.3840086,0.11764389 C56.3388054,0.114275755 56.2947253,0.107539484 56.2492414,0.104171349 C56.1217741,0.0954703336 55.9903761,0.0963123674 55.8617857,0.090137453 C55.6315584,0.07834898 55.4013312,0.0674025408 55.1680155,0.0643150836 C54.9888874,0.0617889823 54.807794,0.0657184732 54.6272621,0.0679638967 C54.3970348,0.0713320318 54.1659653,0.0755422007 53.9329303,0.0867693178 C53.861616,0.090137453 53.7928286,0.0884533854 53.7215143,0.0923828764 C53.6356002,0.0974350791 53.5468785,0.111749653 53.4609644,0.11764389 C53.0926008,0.143746937 52.7211487,0.17995439 52.3466082,0.225704892 C52.2084719,0.242545568 52.0714585,0.25714082 51.9324799,0.276788275 C51.4335605,0.347238435 50.9304297,0.431722491 50.421122,0.538099426 C50.4087684,0.540625527 50.397257,0.541748239 50.3849033,0.544555018 C50.1586068,0.591989588 49.9292218,0.652054664 49.7009599,0.70678686 C49.521551,0.750011261 49.343546,0.787060748 49.1630142,0.834495317 C48.9058334,0.902419376 48.6458451,0.982412585 48.386699,1.05903766 C48.2176785,1.10899833 48.0500618,1.15250341 47.8799182,1.20667425 C47.5904495,1.29817525 47.298454,1.40342948 47.0064584,1.5061576 C46.8638298,1.55667963 46.722605,1.60046538 46.5794149,1.65351351 C46.1433868,1.815184 45.704832,1.98920431 45.2637502,2.17641649 C44.6952011,2.41751883 44.1328289,2.68247879 43.5738258,2.95866587 C43.4567468,3.01648553 43.339387,3.07374382 43.2225888,3.13296687 C42.6807124,3.40859259 42.1427667,3.69797154 41.6104363,4.00475251 C41.5191877,4.05751996 41.4293429,4.11309419 41.3380943,4.166423 C40.8478786,4.45467923 40.3621552,4.75556597 39.8809241,5.06908321 C39.8003445,5.12156999 39.7192034,5.17153066 39.6386239,5.22485946 C39.1186472,5.56953196 38.605128,5.93076445 38.0972242,6.30350474 C37.9857605,6.38518202 37.8754198,6.467982 37.7645177,6.55106267 C37.2582984,6.93053923 36.7557291,7.3187168 36.2624251,7.72457709 C36.256529,7.72962929 36.2509137,7.73468149 36.2450176,7.7397337 C36.1054774,7.85481165 35.970991,7.97915197 35.8325739,8.09619466 C35.4229378,8.44227055 35.014144,8.7900305 34.6146154,9.15350842 C34.4124646,9.33707178 34.2178945,9.53158159 34.0188321,9.71935512 C33.7181328,10.0028398 33.4137836,10.2809917 33.1195419,10.5737387 C33.088377,10.6046133 33.0586159,10.6374526 33.0277318,10.6683272 C32.923568,10.7724587 32.8230541,10.8808004 32.7197326,10.9860546 C32.3468767,11.3658118 31.9793554,11.7520247 31.6174493,12.1463772 C31.4694862,12.3074863 31.3232076,12.4702795 31.1772098,12.633634 C31.0418811,12.7852001 30.9029024,12.9322754 30.7689775,13.0858062 C30.6695867,13.2000421 30.5786189,13.3232597 30.4803511,13.4386183 C30.0151236,13.9820108 29.5608458,14.5366304 29.1172372,15.1021964 C29.0184079,15.2276595 28.911998,15.3449828 28.8145725,15.4715686 C28.7735809,15.5248974 28.7368006,15.5815943 28.695809,15.6352038 C28.1654439,16.329601 27.6491171,17.0366287 27.1524439,17.759655 C27.1409325,17.7764957 27.1282981,17.791933 27.1167867,17.808493 C27.0449109,17.9134665 26.9806157,18.023773 26.9093014,18.1293079 C26.513142,18.7170474 26.1268094,19.311804 25.7539535,19.9158229 C25.7053812,19.9946934 25.6517551,20.0696344 25.6034635,20.1485049 C25.4984574,20.3205605 25.4052434,20.4990716 25.3024835,20.6722499 C25.0158224,21.1547353 24.7350574,21.6400274 24.4638385,22.1312138 C24.3894358,22.2662198 24.3068909,22.3964544 24.2336112,22.5320218 C24.1569624,22.6743256 24.0901403,22.8214008 24.0146145,22.9642659 C23.7506954,23.4633112 23.4968839,23.9662861 23.2500915,24.4729097 C23.1636159,24.6500175 23.0670327,24.8226344 22.9828032,25.0003035 C22.9404077,25.0895591 22.9055929,25.1813408 22.8637589,25.2705964 C22.5537943,25.9346804 22.2598334,26.6038165 21.9801915,27.2777242 C21.9352691,27.3852239 21.8830468,27.4899168 21.8392475,27.5974164 C21.8224016,27.6389567 21.8055557,27.6802164 21.7887098,27.7217567 C21.1544617,28.1236875 20.5303212,28.5528441 19.9126382,28.9965959 C19.8264434,29.0586257 19.7391255,29.1184101 19.6534921,29.181282 C19.0680972,29.6087544 18.492529,30.0564357 17.9242607,30.5192736 C17.8711961,30.5622174 17.8156046,30.6006702 17.76254,30.6441753 C17.7021756,30.6938553 17.644338,30.7483068 17.5839735,30.7985482 C17.1010578,31.1999176 16.6223535,31.6094267 16.1529144,32.0349344 C16.1489837,32.0385833 16.145053,32.0422321 16.1411223,32.0458809 C15.6747717,32.4691432 15.2179671,32.9072814 14.7659355,33.3527173 C14.7092209,33.4088529 14.649418,33.461059 14.5927035,33.5174753 C14.5163354,33.593539 14.4433365,33.6735322 14.3672492,33.7498766 C14.1339335,33.985646 13.9028639,34.224503 13.6734789,34.465886 C13.5325349,34.6138032 13.3915909,34.7617205 13.2526122,34.9116025 C13.0094698,35.1740364 12.770258,35.4409611 12.5324501,35.7092892 C12.4412015,35.8120173 12.3471452,35.9108159 12.2567389,36.0143861 C12.2390507,36.0345949 12.2230471,36.0567685 12.2053589,36.077258 C11.5702685,36.8075819 10.9545509,37.5597988 10.3584869,38.330821 C10.3385525,38.3563627 10.3169336,38.3799397 10.2972801,38.4054814 C10.2880149,38.4175505 10.2798727,38.430181 10.2706074,38.4422502 C9.72395802,39.153488 9.19668139,39.8824086 8.68568914,40.6239597 C8.65677034,40.6657807 8.62476314,40.7050756 8.59640587,40.7468966 C8.58236763,40.7673861 8.57001397,40.7887177 8.55597572,40.8092071 C8.08709821,41.4957454 7.63703195,42.1960368 7.20044242,42.9050292 C7.1636622,42.9650943 7.12238975,43.0223526 7.08560954,43.0826984 C7.06258681,43.1205899 7.04237173,43.1604461 7.01906824,43.1983377 C6.60409761,43.8826305 6.2065344,44.5770276 5.82329021,45.2792838 C5.78931765,45.3415943 5.75085285,45.4016594 5.71716105,45.4639699 C5.68739996,45.5189828 5.66213111,45.5759604 5.63265079,45.6309733 C5.2541796,46.3368783 4.89255431,47.0503615 4.54805569,47.7711425 C4.52250608,47.8241906 4.49302575,47.8755547 4.46803767,47.9288835 C4.43855735,47.9914746 4.41385003,48.0560306 4.38465047,48.1186217 C4.0317289,48.8711193 3.69649552,49.6300724 3.38231951,50.3954811 C3.36435055,50.4395475 3.34273165,50.4822106 3.32476269,50.526277 C3.2621521,50.6803692 3.20515681,50.8358648 3.14395005,50.9905183 C3.0512976,51.225165 2.9583644,51.4598118 2.8693619,51.6953006 C2.78372858,51.9218077 2.70202597,52.1494375 2.61976184,52.3767866 C2.53356699,52.6153628 2.44765291,52.8539391 2.36538877,53.0933573 C2.33899686,53.1708244 2.30923577,53.2477302 2.28312463,53.3251973 C2.24072912,53.4506603 2.20422967,53.5772461 2.16295722,53.7029898 C2.06216259,54.0100514 1.96361409,54.3176744 1.86927706,54.6261395 C1.80694723,54.8301923 1.746302,55.0345259 1.68677982,55.2391401 C1.59777732,55.545079 1.51270554,55.8512986 1.4304414,56.1577989 C1.39731113,56.2812972 1.35912709,56.4045148 1.32711989,56.5280131 C1.30971246,56.5948145 1.29679727,56.6621772 1.27995137,56.7292592 C1.1314267,57.3119466 0.991324976,57.895476 0.868069152,58.4795668 C0.865261502,58.4924779 0.863296147,58.5053891 0.860488498,58.5180196 C0.740601853,59.0891992 0.636438047,59.6603788 0.54069719,60.2318391 C0.528624296,60.3034119 0.512339928,60.3747041 0.500547799,60.446277 C0.481175015,60.5650038 0.468540591,60.6834498 0.450290868,60.8021766 C0.402560822,61.1145711 0.358199956,61.426685 0.318050564,61.7387989 C0.291658657,61.9428517 0.266389809,62.1466239 0.243086316,62.3503961 C0.207429164,62.6670008 0.177106547,62.9830441 0.149030049,63.2990875 C0.131903385,63.4938779 0.113653662,63.6889491 0.0993346482,63.8834589 C0.0746273304,64.2272894 0.0572199019,64.5702778 0.0417778282,64.9129855 C0.0347587038,65.0771821 0.0238088698,65.2416594 0.0187551002,65.4055753 C0.00303226156,65.9105149 -0.00398686284,66.4146125 0.00218996663,66.9167453 C0.0414970632,70.2127462 0.549962434,73.1862481 1.45571025,75.7878519 C1.7575326,76.6551466 2.10371581,77.4809011 2.49117148,78.2637119 C2.68489931,78.6552576 2.88901545,79.0355762 3.10295836,79.405229 C3.53112495,80.1445346 3.99972169,80.8394932 4.50537941,81.4889819 C5.0113179,82.1379093 5.55431736,82.7416475 6.13241245,83.2971091 C6.99941469,84.1310033 7.94475037,84.8571171 8.95943499,85.469837 L32.8000314,99.8711408 C27.388848,96.6023656 23.9480732,90.1074784 23.8425056,81.3174877 C23.8366095,80.8156356 23.8436286,80.311538 23.8593515,79.8063177 C23.8644053,79.6426825 23.8753551,79.4779246 23.882655,79.3140087 C23.8978163,78.9713009 23.914943,78.6280318 23.939931,78.284482 C23.9539693,78.0899722 23.9724998,77.8951817 23.9896264,77.7003913 C24.0174222,77.3840672 24.0480256,77.0677432 24.0836827,76.7511385 C24.1067054,76.5473663 24.1319743,76.3435941 24.1583662,76.139822 C24.1987963,75.8277081 24.2431572,75.5155943 24.2908873,75.2031997 C24.3200868,75.0131808 24.3492864,74.8231618 24.3810128,74.6328622 C24.4770344,74.0614019 24.5809175,73.4899417 24.7013656,72.9190428 C24.7038925,72.9061316 24.7058579,72.8932204 24.7086655,72.8805899 C24.8319214,72.2962184 24.9720231,71.7129697 25.1205478,71.1302823 C25.1688393,70.939702 25.2199386,70.7494024 25.2710378,70.5591027 C25.3533019,70.2523218 25.4383737,69.9458215 25.5273762,69.6396018 C25.5868984,69.4352683 25.6475436,69.2309348 25.7098734,69.0266013 C25.8039297,68.7198203 25.9019167,68.4130393 26.0024305,68.1071004 C26.0698141,67.9019248 26.1363554,67.6967492 26.2068274,67.492135 C26.2885301,67.2538395 26.3741634,67.0163859 26.4597967,66.7789324 C26.5420608,66.5513026 26.6240442,66.3236728 26.7096775,66.096885 C26.7989608,65.8608349 26.891894,65.6259075 26.9848272,65.3909801 C27.0634414,65.1925408 27.1417748,64.9943821 27.2229159,64.7967849 C27.5370919,64.0310955 27.8723253,63.271581 28.2252469,62.5190835 C28.2794345,62.4034442 28.3333414,62.2875242 28.3883713,62.1724463 C28.7328699,61.4516653 29.0944952,60.738182 29.4726856,60.0325577 C29.5358578,59.914673 29.5998722,59.7973496 29.6641674,59.6797456 C30.0474116,58.9777701 30.4452555,58.2830922 30.8599454,57.5990801 C30.9194676,57.5008428 30.9806743,57.4042896 31.040758,57.3066137 C31.4770668,56.5973406 31.9274138,55.8973298 32.3962913,55.2107916 C32.4392484,55.1479198 32.48389,55.0864513 32.5271278,55.0238601 C33.0375585,54.2828704 33.5642736,53.5545112 34.1106423,52.8438346 C34.1398418,52.8056625 34.170726,52.768613 34.2002063,52.7301601 C34.7959896,51.9596992 35.4114264,51.2083244 36.0456745,50.4780004 C36.153769,50.3542214 36.2638289,50.2329686 36.3727657,50.1100316 C36.6108544,49.8417035 36.8500662,49.5750595 37.0932086,49.3129063 C37.232468,49.1624629 37.3734121,49.0148264 37.5143561,48.8663477 C37.7434603,48.6255261 37.9739683,48.3872305 38.2070033,48.1520224 C38.3398051,48.0178584 38.4734492,47.8850977 38.6076549,47.7526177 C39.0582827,47.3085852 39.5136835,46.8715697 39.9786303,46.4497108 C39.9839648,46.4449393 39.9887378,46.4401677 39.9937916,46.4353962 C40.4626691,46.0101691 40.9410926,45.6012214 41.4237276,45.2001326 C41.5371567,45.1058249 41.651428,45.0126398 41.7654186,44.9194547 C42.3331254,44.4571782 42.9089743,44.0097776 43.4938078,43.5823051 C43.5797219,43.5194332 43.666759,43.4596488 43.7532346,43.3973383 C44.3709176,42.9538672 44.9947773,42.5247106 45.6293062,42.1227798 C45.6896706,41.9734592 45.7587388,41.827226 45.8207879,41.6784667 C46.1004298,41.0048397 46.3943907,40.3357035 46.7040745,39.6719002 C46.8290149,39.4041334 46.9612552,39.1391735 47.0909686,38.8730908 C47.3377611,38.3670285 47.5912918,37.8640536 47.8549301,37.3655696 C48.0026125,37.0865758 48.1519795,36.808424 48.3047156,36.5319562 C48.5753731,36.0413312 48.856138,35.556039 49.1425183,35.0743957 C49.2927276,34.8212242 49.44041,34.5666494 49.5948307,34.3162846 C49.9674058,33.7128271 50.3537384,33.1180706 50.749617,32.5306117 C50.8321619,32.4085168 50.9093723,32.2822117 50.9930403,32.1606782 C51.4894328,31.4379325 52.0057595,30.7306241 52.5361246,30.0365076 C52.6739802,29.855751 52.8185741,29.680608 52.9586759,29.5020968 C53.4020038,28.9373728 53.8554392,28.3830339 54.3198245,27.8404835 C54.5514556,27.56991 54.7819636,27.2984944 55.0186485,27.0338151 C55.1643655,26.8710219 55.3103633,26.7082287 55.4574842,26.547681 C55.8199517,26.1527671 56.1883154,25.7659929 56.5617328,25.3856743 C56.664212,25.2809815 56.7644451,25.1732011 56.8677666,25.0699117 C57.1957001,24.7417992 57.5328989,24.4277206 57.8689745,24.1113965 C58.0646677,23.9267105 58.2555879,23.7355688 58.4540887,23.5553736 C58.8558634,23.1896502 59.2674649,22.8399255 59.6796279,22.4916042 C59.8157989,22.3765263 59.9483199,22.25387 60.085614,22.1407568 C60.5848141,21.7295636 61.0929987,21.3357725 61.6056756,20.9515244 C61.7160162,20.8690051 61.8263569,20.7862051 61.937259,20.7050892 C62.4451629,20.3323489 62.958682,19.9711164 63.4786587,19.6264439 C63.5595191,19.5728345 63.6417832,19.5220317 63.7229243,19.4689836 C64.2035939,19.1560277 64.6890366,18.8554217 65.1786907,18.5674461 C65.2696585,18.5141173 65.3597841,18.4582624 65.4507519,18.4057756 C65.9830823,18.0992753 66.5207473,17.8096157 67.0623429,17.5342707 C67.1797027,17.4747669 67.2973432,17.417228 67.4149837,17.3594083 C67.9739868,17.0832212 68.5360783,16.8185419 69.1043466,16.5771589 C69.5448668,16.3902274 69.9831409,16.2164878 70.4191689,16.0548173 C70.5738704,15.997559 70.7263258,15.9498438 70.8804658,15.8956729 C71.1606692,15.797155 71.441715,15.6958302 71.7196723,15.6076974 C71.8940274,15.5524038 72.0661363,15.5074953 72.239649,15.456412 C72.4948644,15.3811903 72.7506413,15.3020391 73.0036105,15.2355184 C73.1861078,15.1878032 73.3657974,15.1499117 73.5471715,15.1064066 C73.785541,15.049429 74.0247528,14.9885219 74.2608761,14.9394032 C74.7701838,14.8330263 75.2733146,14.7485422 75.772234,14.6778114 C75.7747609,14.6775307 75.777007,14.67725 75.7792531,14.6769694 L95.0607878,26.3239806 C97.2771465,24.5812514 99.6487683,23.1413736 102.114446,22.0950063 C102.489548,21.9361426 102.862123,21.7882253 103.233014,21.6504125 C103.358797,21.6038199 103.482895,21.5653671 103.608116,21.5210199" id="Fill-1" fill="#59D4FF" mask="url(#mask-2)"></path>
                    </g>
                    <g transform="translate(24.000000, 15.000000)">
                        <mask id="mask-4" fill="white">
                            <use xlink:href="#path-3"></use>
                        </mask>
                        <g id="Clip-4"></g>
                        <path d="M45.4093752,2.16276997 C35.2243214,6.43466454 26.4301718,16.3512748 21.8872265,27.4605911 L21.8872265,27.4605911 C9.29425406,35.3456262 -0.121357405,51.578492 0.05644427,66.275377 L0.05644427,66.275377 C0.257596481,82.8590224 12.5906183,91.1940671 27.5968546,84.9008818 L27.5968546,84.9008818 C29.6024687,84.0595112 31.5481592,83.0002236 33.4176088,81.7580415 L33.4176088,81.7580415 C38.3499173,81.568754 43.8733038,80.3079489 49.7024979,77.8630543 L49.7024979,77.8630543 C59.0941962,73.9247061 67.6323339,67.6006677 74.1173123,60.3743866 L74.1173123,60.3743866 C75.7254047,60.0886486 77.3942647,59.5975016 79.1075752,58.8789872 L79.1075752,58.8789872 C91.9199863,53.5055559 102.164964,37.6796166 101.993351,23.5250224 L101.993351,23.5250224 C101.821739,9.37042812 91.2988058,2.25366134 78.4863946,7.62709265 L78.4863946,7.62709265 C76.0157391,8.6633099 73.6390483,10.0892204 71.4184967,11.8150447 L71.4184967,11.8150447 C68.7208064,4.38335463 62.6845521,0.0650415335 55.069464,0.0650415335 L55.069464,0.0650415335 C52.0597768,0.0650415335 48.8036429,0.739361022 45.4093752,2.16276997" id="Fill-3" fill="url(#linearGradient-5)" mask="url(#mask-4)"></path>
                    </g>
                </g>
                <path d="M58.608,58.1224358 L60.72,57.0114306 L60.72,74.3454511 L57.912,75.7398387 L57.912,61.8953271 C56.88,63.3728348 55.584,64.7428562 54,66.0184472 L54,63.2344472 C54.768,62.6417416 55.584,61.8790768 56.448,60.9457633 C57.312,59.96275 58.032,59.0295973 58.608,58.1224358 Z M71.32,51.0893554 C74.68,49.3199058 76.576,49.941993 77.008,52.9590938 L74.272,54.3779126 C73.936,52.9138504 72.928,52.62154 71.296,53.474521 C70.144,54.0766253 69.232,55.1197498 68.56,56.6265818 C67.888,58.0570873 67.576,59.5695053 67.576,61.1904846 L67.576,61.4115273 L67.696,61.3500165 C68.176,60.3664217 68.776,59.5413188 69.496,58.8257851 C70.168,58.1341803 70.936,57.5898136 71.8,57.143905 C73.48,56.2768606 74.824,56.1301323 75.832,56.731367 C76.84,57.3363457 77.344,58.5264407 77.344,60.2738804 C77.344,62.0712471 76.744,63.844561 75.592,65.5664584 C74.44,67.2839818 73,68.5944661 71.296,69.4396484 C69.184,70.4871983 67.576,70.4988354 66.472,69.5034483 C65.368,68.5382714 64.84,66.7255532 64.84,64.0607892 C64.84,61.2004463 65.416,58.6033378 66.592,56.2273495 C67.744,53.8569756 69.328,52.1383863 71.32,51.0893554 Z M71.2,59.8010002 C70.144,60.3418593 69.328,61.0800196 68.752,62.0391629 C68.152,62.9846644 67.864,64.0405575 67.864,65.1708777 C67.864,66.2766257 68.176,67.0043865 68.8,67.3305921 C69.424,67.6581369 70.216,67.5824104 71.2,67.0904082 C72.208,66.5864059 73,65.843426 73.624,64.8363869 C74.248,63.8279057 74.56,62.7764566 74.56,61.6831214 C74.56,60.5897862 74.248,59.8790372 73.672,59.5273734 C73.048,59.1767165 72.232,59.2724334 71.2,59.8010002 Z M86.648,43.0172946 C88.376,42.1072919 89.792,41.7947071 90.848,42.1325613 C91.88,42.486019 92.408,43.4379446 92.408,45.0242226 C92.408,47.0198626 91.448,48.8428906 89.552,50.4779269 C90.56,50.2933924 91.352,50.3735604 91.88,50.7685403 C92.456,51.1658283 92.744,51.9153321 92.744,52.9904899 C92.744,54.6800236 92.192,56.3385984 91.088,57.9633439 C89.936,59.6335987 88.424,60.9441775 86.552,61.8726877 C84.776,62.7535819 83.336,62.9888168 82.256,62.569029 C81.056,62.1121526 80.384,60.8926985 80.24,58.9584435 L83.096,57.5134639 C83.144,58.6485071 83.48,59.3869472 84.152,59.6803361 C84.752,59.9606092 85.544,59.8677719 86.528,59.3756885 C87.608,58.8355969 88.472,58.0730287 89.096,57.12443 C89.648,56.2616794 89.936,55.4034029 89.936,54.5369773 C89.936,53.4921699 89.624,52.8862012 89.048,52.6953791 C88.472,52.4800377 87.632,52.6796943 86.528,53.2428141 L85.328,53.8549009 L85.328,51.629123 L86.528,51.012678 C87.536,50.4948642 88.304,49.8715976 88.832,49.1422899 C89.336,48.4245712 89.6,47.6007935 89.6,46.7093701 C89.6,45.8179467 89.36,45.2806995 88.904,45.060181 C88.4,44.8654019 87.656,45.0253607 86.672,45.5394956 C85.664,46.0661704 84.896,46.7201974 84.344,47.5386855 C83.768,48.3687051 83.432,49.3504121 83.336,50.4842998 L80.576,51.9119193 C80.72,50.0300364 81.344,48.2982196 82.496,46.6892159 C83.576,45.114269 84.968,43.9020194 86.648,43.0172946 Z" fill="#0D2135" fill-rule="nonzero"></path>
            </g>
        </g>
    </g>
</svg>