<?xml version="1.0" encoding="UTF-8"?>
<svg width="325px" height="175px" viewBox="0 0 325 175" version="1.1" xmlns="http://www.w3.org/2000/svg" xmlns:xlink="http://www.w3.org/1999/xlink">
    <!-- Generator: Sketch 55 (78076) - https://sketchapp.com -->
    <title>机房底</title>
    <desc>Created with Sketch.</desc>
    <g id="Page-1" stroke="none" stroke-width="1" fill="none" fill-rule="evenodd">
        <g id="拓扑" transform="translate(-268.000000, -218.000000)">
            <g id="机房底" transform="translate(260.000000, 218.000000)">
                <path d="M265.66057,1.86104779 L327.082256,33.1838027 C331.018274,35.1910244 332.581873,40.0089725 330.574651,43.944991 C329.812144,45.4402133 328.598672,46.6577387 327.106001,47.4252276 L82.6319676,173.126793 C80.3444313,174.302979 77.6308756,174.307503 75.33943,173.138952 L13.9177441,141.816197 C9.98172566,139.808976 8.41812695,134.991027 10.4253487,131.055009 C11.1878559,129.559787 12.4013281,128.342261 13.8939994,127.574772 L258.368032,1.87320662 C260.655569,0.697020815 263.369124,0.692496508 265.66057,1.86104779 Z" id="多边形备份-6" fill="#FFFFFF" opacity="0.300000012"></path>
                <path d="M265.66057,1.86104779 L327.082256,33.1838027 C331.018274,35.1910244 332.581873,40.0089725 330.574651,43.944991 C329.812144,45.4402133 328.598672,46.6577387 327.106001,47.4252276 L82.6319676,173.126793 C80.3444313,174.302979 77.6308756,174.307503 75.33943,173.138952 L13.9177441,141.816197 C9.98172566,139.808976 8.41812695,134.991027 10.4253487,131.055009 C11.1878559,129.559787 12.4013281,128.342261 13.8939994,127.574772 L258.368032,1.87320662 C260.655569,0.697020815 263.369124,0.692496508 265.66057,1.86104779 Z" id="多边形备份-7" stroke="#FFFFFF" stroke-width="2" opacity="0.800000012"></path>
            </g>
        </g>
    </g>
</svg>