<?xml version="1.0" encoding="UTF-8"?>
<svg width="804px" height="459px" viewBox="0 0 804 459" version="1.1" xmlns="http://www.w3.org/2000/svg" xmlns:xlink="http://www.w3.org/1999/xlink">
    <!-- Generator: Sketch 55 (78076) - https://sketchapp.com -->
    <title>center</title>
    <desc>Created with Sketch.</desc>
    <defs>
        <path d="M426.314778,2.75435855 L732.9213,158.110694 C738.833123,161.106192 741.197271,168.327002 738.201774,174.238824 C737.051367,176.509231 735.208858,178.355053 732.940522,179.509537 L338.552101,380.23588 C335.138907,381.973046 331.101532,381.976672 327.685222,380.245641 L21.0787003,224.889306 C15.1668774,221.893808 12.8027288,214.672998 15.7982265,208.761176 C16.9486327,206.490769 18.791142,204.644947 21.0594783,203.490463 L415.447899,2.76411998 C418.861093,1.02695436 422.898468,1.02332769 426.314778,2.75435855 Z" id="path-1"></path>
        <filter x="-6.0%" y="-15.3%" width="112.1%" height="130.6%" filterUnits="objectBoundingBox" id="filter-2">
            <feMorphology radius="8" operator="dilate" in="SourceAlpha" result="shadowSpreadOuter1"></feMorphology>
            <feOffset dx="0" dy="0" in="shadowSpreadOuter1" result="shadowOffsetOuter1"></feOffset>
            <feGaussianBlur stdDeviation="12" in="shadowOffsetOuter1" result="shadowBlurOuter1"></feGaussianBlur>
            <feColorMatrix values="0 0 0 0 0.474509804   0 0 0 0 0.905882353   0 0 0 0 1  0 0 0 1 0" type="matrix" in="shadowBlurOuter1"></feColorMatrix>
        </filter>
    </defs>
    <g id="Page-1" stroke="none" stroke-width="1" fill="none" fill-rule="evenodd">
        <g id="拓扑" transform="translate(-586.000000, -375.000000)">
            <g id="center" transform="translate(611.000000, 413.000000)">
                <g id="多边形备份-12" opacity="0.200000003">
                    <use fill="black" fill-opacity="1" filter="url(#filter-2)" xlink:href="#path-1"></use>
                    <use fill="#79E7FF" fill-rule="evenodd" xlink:href="#path-1"></use>
                </g>
                <path d="M426.314778,2.75435855 L732.9213,158.110694 C738.833123,161.106192 741.197271,168.327002 738.201774,174.238824 C737.051367,176.509231 735.208858,178.355053 732.940522,179.509537 L338.552101,380.23588 C335.138907,381.973046 331.101532,381.976672 327.685222,380.245641 L21.0787003,224.889306 C15.1668774,221.893808 12.8027288,214.672998 15.7982265,208.761176 C16.9486327,206.490769 18.791142,204.644947 21.0594783,203.490463 L415.447899,2.76411998 C418.861093,1.02695436 422.898468,1.02332769 426.314778,2.75435855 Z" id="多边形备份-8" stroke="#79E7FF" stroke-width="2" stroke-dasharray="8"></path>
                <path d="M361.899442,59.8793621 L398.388215,78.5534386 C402.321343,80.5663188 403.878011,85.3865106 401.865131,89.3196384 C401.107535,90.7999652 399.907465,92.007416 398.431811,92.7740738 L194.632471,198.655505 C192.335727,199.84875 189.603609,199.857126 187.299591,198.677985 L150.810818,180.003909 C146.877691,177.991028 145.321022,173.170837 147.333903,169.237709 C148.091498,167.757382 149.291568,166.549931 150.767222,165.783273 L354.566562,59.9018424 C356.863307,58.7085971 359.595425,58.7002212 361.899442,59.8793621 Z" id="多边形备份-17" fill="#D021FE" opacity="0.200000003"></path>
                <path d="M585.899442,171.879362 L622.388215,190.553439 C626.321343,192.566319 627.878011,197.386511 625.865131,201.319638 C625.107535,202.799965 623.907465,204.007416 622.431811,204.774074 L418.632471,310.655505 C416.335727,311.84875 413.603609,311.857126 411.299591,310.677985 L374.810818,292.003909 C370.877691,289.991028 369.321022,285.170837 371.333903,281.237709 C372.091498,279.757382 373.291568,278.549931 374.767222,277.783273 L578.566562,171.901842 C580.863307,170.708597 583.595425,170.700221 585.899442,171.879362 Z" id="多边形备份-18" fill="#3CCAFF" opacity="0.200000003"></path>
                <path d="M361.899442,59.8793621 L398.388215,78.5534386 C402.321343,80.5663188 403.878011,85.3865106 401.865131,89.3196384 C401.107535,90.7999652 399.907465,92.007416 398.431811,92.7740738 L194.632471,198.655505 C192.335727,199.84875 189.603609,199.857126 187.299591,198.677985 L150.810818,180.003909 C146.877691,177.991028 145.321022,173.170837 147.333903,169.237709 C148.091498,167.757382 149.291568,166.549931 150.767222,165.783273 L354.566562,59.9018424 C356.863307,58.7085971 359.595425,58.7002212 361.899442,59.8793621 Z" id="多边形备份-7" stroke="#79E7FF" stroke-width="2" opacity="0.5"></path>
                <path d="M585.899442,171.879362 L622.388215,190.553439 C626.321343,192.566319 627.878011,197.386511 625.865131,201.319638 C625.107535,202.799965 623.907465,204.007416 622.431811,204.774074 L418.632471,310.655505 C416.335727,311.84875 413.603609,311.857126 411.299591,310.677985 L374.810818,292.003909 C370.877691,289.991028 369.321022,285.170837 371.333903,281.237709 C372.091498,279.757382 373.291568,278.549931 374.767222,277.783273 L578.566562,171.901842 C580.863307,170.708597 583.595425,170.700221 585.899442,171.879362 Z" id="多边形备份-19" stroke="#79E7FF" stroke-width="2" opacity="0.5"></path>
                <path d="M462.649966,252.564052 L459.632338,254.072202 L456.755533,252.695198 L458.652328,251.747218 C457.033393,251.261533 455.545982,250.850854 454.136692,250.513723 L454,249.399834 C455.577763,249.793504 457.245965,250.254566 459.016923,250.776864 L459.145002,251.500989 L460.967895,250.589944 C459.759292,249.674001 458.415118,248.741372 456.96414,247.805825 L459.243791,247.67982 C460.435857,248.491436 461.418363,249.238899 462.273481,249.937438 L464.071741,249.038704 L466.948546,250.415708 L463.955552,251.911546 L467.235109,253.481331 L469.858598,252.170164 L472.735403,253.547168 L470.111914,254.858335 L473.535312,256.49697 L476.934762,254.797993 L479.840335,256.188767 L476.440885,257.887744 L483,261.027314 L481.694414,261.67982 L475.135299,258.54025 L471.748166,260.233071 L468.842593,258.842297 L472.229726,257.149476 L468.806328,255.510841 L466.158206,256.834319 L463.281401,255.457315 L465.929523,254.133837 L462.649966,252.564052 Z M450,251.67982 C452.393385,251.897438 454.655589,252.167355 456.78661,252.489571 L458,253.67982 C456.065844,253.350862 453.773,253.069246 451.134589,252.829741 L450,251.67982 Z M457,255.67982 C459.394636,255.903798 461.643296,256.184271 463.728255,256.504614 L465,257.67982 C463.056655,257.351639 460.777,257.059678 458.147763,256.809071 L457,255.67982 Z M466,257.740688 L468.215717,257.67982 C471.426881,259.761479 474.379036,261.7682 477,263.677653 L474.376724,263.67982 C471.785399,261.696616 468.973339,259.70732 466,257.740688 Z M472.326399,244.337439 C471.835811,244.636749 471.320276,244.948409 470.721522,245.244794 L467.683524,244.179275 C469.829059,243.117231 471.05509,241.945654 471.444838,240.67982 L474.532557,241.551319 C474.441751,242.245661 474.051392,242.918875 473.319873,243.563323 C474.164881,244.048544 474.96828,244.526127 475.742543,244.989899 L479.147956,243.304212 L482.032341,244.671646 L480.310923,245.523751 C482.732808,246.188386 485.000467,246.562315 487.126376,246.639363 L489.274618,248.201782 C487.897501,248.092894 486.536957,247.919332 485.122243,247.659648 L498,253.764753 L496.727648,254.39457 L483.179781,247.971778 L484.177705,247.477804 C482.480013,247.132318 480.782234,246.702173 479.051045,246.147393 L478.190336,246.573445 C478.523385,246.803868 478.873094,247.054277 479.193669,247.290875 C479.918124,247.864004 480.534412,248.434208 481.084143,249.009123 L481.608052,248.749787 L484.608978,250.17247 C488.629635,252.078589 491.493869,254.077154 493.2849,256.183441 L490.19343,255.70908 C488.847889,253.946964 486.578919,252.303133 483.374048,250.783763 L482.033829,250.14839 C482.342104,250.560482 482.596295,250.971111 482.796404,251.380276 L480.278914,250.791201 L481.30737,251.6656 C479.767653,251.213682 478.427696,250.83229 477.329107,250.52906 L491.110055,257.062352 L489.862651,257.67982 L477.305382,251.726651 C479.137061,252.909314 480.773169,254.047614 482.172095,255.133912 L478.306011,253.85714 C476.490557,252.271163 474.167504,250.625869 471.253635,248.905983 L469.881491,249.585198 L466.938836,248.19014 L468.360876,247.486227 L463,244.944735 L464.247404,244.327267 L469.60828,246.868759 L470.818262,246.269816 L473.760917,247.664874 L472.550935,248.263817 L473.862019,248.885378 C475.60132,249.238501 477.457162,249.646874 479.446206,250.130484 C478.975157,249.206042 478.167134,248.278997 476.993003,247.335534 L476.855614,247.234136 L475.14667,248.080066 L472.262286,246.712633 L474.495139,245.607366 C473.837416,245.198845 473.108949,244.768873 472.326399,244.337439 Z M477,240.589096 L478.600841,239.824107 L498.2062,246.485578 L498.244015,246.467508 L483.579835,237.444809 L485.180676,236.67982 L503,247.830501 L501.222688,248.67982 L477,240.589096 Z M494.757936,237.057891 C495.707822,236.594302 497.186133,236.552245 499.249756,236.958311 C501.272758,237.357025 503.413878,238.078572 505.689383,239.14219 C507.936444,240.192512 509.493019,241.199345 510.35502,242.137505 C511.249553,243.114142 511.209698,243.840199 510.259812,244.303788 C509.297748,244.773321 507.790993,244.802083 505.72737,244.396017 C503.732812,244.010598 501.60387,243.283108 499.356809,242.232785 C497.081304,241.169167 495.512551,240.168278 494.646462,239.204936 C493.739751,238.234242 493.795872,237.527424 494.757936,237.057891 Z M497.387638,238.866671 C496.801509,239.143308 496.875288,239.582844 497.641595,240.222591 C498.28562,240.761932 499.349176,241.366798 500.77522,242.011405 C502.201264,242.656013 503.504941,243.121195 504.686252,243.406952 C506.059011,243.734117 507.040505,243.77159 507.626634,243.494954 C508.200552,243.22408 508.110463,242.765889 507.372677,242.139034 C506.700131,241.586801 505.677307,240.989064 504.279784,240.357349 C502.85374,239.712741 501.509331,239.24043 500.32802,238.954673 C498.92674,238.614616 497.961556,238.595798 497.387638,238.866671 Z M495,232.424631 L496.44354,231.67982 L514.289919,240.498707 L519.093424,238.020281 L522,239.456582 L515.752955,242.67982 L495,232.424631 Z M502,228.283175 L509.244884,224.67982 L512.137471,226.057689 L509.239517,227.499031 L527,235.959149 L525.551023,236.67982 L507.79054,228.219702 L504.892587,229.661044 L502,228.283175 Z M511,224.849524 L517.321415,221.67982 L520.18835,223.056612 L515.303062,225.506208 L520.979594,228.232257 L525.570291,225.930374 L528.437227,227.307167 L523.846529,229.609049 L530.039109,232.58292 L535.133065,230.028692 L538,231.405484 L531.469917,234.67982 L511,224.849524 Z M527.082882,216.17853 C528.148592,215.674658 529.688601,215.549967 531.677536,215.816455 C533.581832,216.068104 535.693822,216.660414 537.96693,217.56055 L536.52061,218.244377 C534.975632,217.685698 533.689007,217.361441 532.618418,217.264188 C531.560515,217.160936 530.744021,217.272691 530.10967,217.572615 C529.158144,218.022502 529.188487,218.693875 530.247278,219.619571 C531.166333,220.446761 532.847143,221.407508 535.27702,222.507811 C537.766161,223.634951 539.907962,224.405168 541.67279,224.805044 C543.564576,225.22718 545.041239,225.214726 546.030826,224.746844 C546.677864,224.440921 546.825495,224.014547 546.520296,223.500555 C546.151573,222.934312 545.241123,222.240197 543.818579,221.431628 L545.264899,220.747801 C547.551048,221.970916 549.00775,223.065052 549.65195,224.049624 C550.258001,224.969947 550.072576,225.66105 549.095675,226.122933 C547.58592,226.836753 545.330735,226.860722 542.402073,226.215678 C539.858546,225.662827 536.992964,224.658813 533.792639,223.209634 C530.651579,221.787291 528.403401,220.463936 527.120059,219.260406 C525.6292,217.880704 525.636562,216.862358 527.082882,216.17853 Z M534,212.849524 L540.321415,209.67982 L543.18835,211.056612 L538.303062,213.506208 L543.979594,216.232257 L548.570291,213.930374 L551.437227,215.307167 L546.846529,217.609049 L553.039109,220.58292 L558.133065,218.028692 L561,219.405484 L554.469917,222.67982 L534,212.849524 Z" id="洋桥VoLTECE" fill="#FFFFFF" fill-rule="nonzero"></path>
                <path d="M235,143.0084 L236.904503,142.67982 C240.683295,144.8841 243.704071,146.870668 246,148.67982 L243.092798,148.429482 C240.821701,146.607881 238.124102,144.800854 235,143.0084 Z M243.251981,138.67982 C247.324816,139.815397 251.578023,141.108545 255.95151,142.533282 L256,143.67982 C251.227354,142.116614 246.914052,140.797484 243,139.696448 L243.251981,138.67982 Z M230.184197,135.721729 C231.381467,136.099785 232.712732,136.554544 234.148684,137.071924 L238.917051,134.67982 L241.906541,136.116147 L238.568684,137.790621 L255.538435,145.943893 C257.853824,147.056343 258.536788,147.865115 257.583115,148.343536 L256.227894,149.023397 L253.00841,147.760018 C253.552289,147.602314 254.029213,147.449413 254.405663,147.260563 C254.794662,147.065418 254.467878,146.711228 253.471381,146.232452 L237.263657,138.445302 L235.670019,139.244768 L239.714622,141.188036 C247.297246,144.868148 251.857824,148.02059 253.442428,150.67982 L250.428807,150.205492 C249.11237,147.872289 245.108745,145.073709 238.422144,141.836422 L234.37754,139.893155 L230.98949,141.592808 L228,140.15648 L232.730722,137.783261 C231.52924,137.378533 230.361279,137.014559 229.268695,136.699125 L230.184197,135.721729 Z M253.379728,137.299907 L256.525763,135.812525 L251,133.310469 L252.333919,132.67982 L257.859682,135.181876 L261.068639,133.664747 L264.037267,135.008936 L260.828311,136.526065 L268.1764,139.853268 L272.001979,138.044612 L275,139.40211 L265.952002,143.67982 L262.953981,142.322321 L266.842481,140.483918 L259.494392,137.156715 L256.348356,138.644097 L253.379728,137.299907 Z M243.279763,129.648671 C244.391153,129.987808 245.618247,130.380574 246.919734,130.819557 L251.340958,128.67982 L254.262463,130.033981 L245.234249,134.403362 L251.19296,137.165315 C257.374851,140.065918 261.982711,142.577219 265,144.67982 L261.612653,144.15406 C259.165739,142.433177 255.264569,140.319841 249.880216,137.800643 L241,133.684528 L245.49553,131.508828 C244.42545,131.177106 243.400836,130.878192 242.409306,130.618081 L243.279763,129.648671 Z M253,128.589096 L254.600841,127.824107 L274.2062,134.485578 L274.244015,134.467508 L259.579835,125.444809 L261.180676,124.67982 L279,135.830501 L277.222688,136.67982 L253,128.589096 Z M270.757936,125.057891 C271.707822,124.594302 273.186133,124.552245 275.249756,124.958311 C277.272758,125.357025 279.413878,126.078572 281.689383,127.14219 C283.936444,128.192512 285.493019,129.199345 286.35502,130.137505 C287.249553,131.114142 287.209698,131.840199 286.259812,132.303788 C285.297748,132.773321 283.790993,132.802083 281.72737,132.396017 C279.732812,132.010598 277.60387,131.283108 275.356809,130.232785 C273.081304,129.169167 271.512551,128.168278 270.646462,127.204936 C269.739751,126.234242 269.795872,125.527424 270.757936,125.057891 Z M273.387638,125.866671 C272.801509,126.143308 272.875288,126.582844 273.641595,127.222591 C274.28562,127.761932 275.349176,128.366798 276.77522,129.011405 C278.201264,129.656013 279.504941,130.121195 280.686252,130.406952 C282.059011,130.734117 283.040505,130.77159 283.626634,130.494954 C284.200552,130.22408 284.110463,129.765889 283.372677,129.139034 C282.700131,128.586801 281.677307,127.989064 280.279784,127.357349 C278.85374,126.712741 277.509331,126.24043 276.32802,125.954673 C274.92674,125.614616 273.961556,125.595798 273.387638,125.866671 Z M271,119.424631 L272.44354,118.67982 L290.289919,127.498707 L295.093424,125.020281 L298,126.456582 L291.752955,129.67982 L271,119.424631 Z M278,116.283175 L285.244884,112.67982 L288.137471,114.057689 L285.239517,115.499031 L303,123.959149 L301.551023,124.67982 L283.79054,116.219702 L280.892587,117.661044 L278,116.283175 Z M287,111.849524 L293.321415,108.67982 L296.18835,110.056612 L291.303062,112.506208 L296.979594,115.232257 L301.570291,112.930374 L304.437227,114.307167 L299.846529,116.609049 L306.039109,119.58292 L311.133065,117.028692 L314,118.405484 L307.469917,121.67982 L287,111.849524 Z M303.082882,103.17853 C304.148592,102.674658 305.688601,102.549967 307.677536,102.816455 C309.581832,103.068104 311.693822,103.660414 313.96693,104.56055 L312.52061,105.244377 C310.975632,104.685698 309.689007,104.361441 308.618418,104.264188 C307.560515,104.160936 306.744021,104.272691 306.10967,104.572615 C305.158144,105.022502 305.188487,105.693875 306.247278,106.619571 C307.166333,107.446761 308.847143,108.407508 311.27702,109.507811 C313.766161,110.634951 315.907962,111.405168 317.67279,111.805044 C319.564576,112.22718 321.041239,112.214726 322.030826,111.746844 C322.677864,111.440921 322.825495,111.014547 322.520296,110.500555 C322.151573,109.934312 321.241123,109.240197 319.818579,108.431628 L321.264899,107.747801 C323.551048,108.970916 325.00775,110.065052 325.65195,111.049624 C326.258001,111.969947 326.072576,112.66105 325.095675,113.122933 C323.58592,113.836753 321.330735,113.860722 318.402073,113.215678 C315.858546,112.662827 312.992964,111.658813 309.792639,110.209634 C306.651579,108.787291 304.403401,107.463936 303.120059,106.260406 C301.6292,104.880704 301.636562,103.862358 303.082882,103.17853 Z M310,99.849524 L316.321415,96.6798196 L319.18835,98.0566117 L314.303062,100.506208 L319.979594,103.232257 L324.570291,100.930374 L327.437227,102.307167 L322.846529,104.609049 L329.039109,107.58292 L334.133065,105.028692 L337,106.405484 L330.469917,109.67982 L310,99.849524 Z" id="亦庄VoLTECE" fill="#FFFFFF" fill-rule="nonzero"></path>
            </g>
        </g>
    </g>
</svg>