<?xml version="1.0" encoding="UTF-8"?>
<svg width="553px" height="335px" viewBox="0 0 553 335" version="1.1" xmlns="http://www.w3.org/2000/svg" xmlns:xlink="http://www.w3.org/1999/xlink">
    <!-- Generator: Sketch 55 (78076) - https://sketchapp.com -->
    <title>changping</title>
    <desc>Created with Sketch.</desc>
    <defs>
        <path d="M199.747018,2.83652135 L482.27017,149.136657 C488.155335,152.184196 490.455684,159.425583 487.408145,165.310748 C486.256343,167.535016 484.437393,169.343108 482.206268,170.481571 L314.225195,256.196327 C310.776636,257.956004 306.690943,257.943772 303.252982,256.163479 L20.72983,109.863343 C14.8446655,106.815804 12.5443156,99.574417 15.5918548,93.6892525 C16.7436569,91.4649841 18.5626074,89.6568922 20.7937323,88.5184286 L188.774805,2.80367276 C192.223364,1.04399591 196.309057,1.05622765 199.747018,2.83652135 Z" id="path-1"></path>
        <filter x="-9.1%" y="-22.6%" width="118.2%" height="145.2%" filterUnits="objectBoundingBox" id="filter-2">
            <feMorphology radius="8" operator="dilate" in="SourceAlpha" result="shadowSpreadOuter1"></feMorphology>
            <feOffset dx="0" dy="0" in="shadowSpreadOuter1" result="shadowOffsetOuter1"></feOffset>
            <feGaussianBlur stdDeviation="12" in="shadowOffsetOuter1" result="shadowBlurOuter1"></feGaussianBlur>
            <feColorMatrix values="0 0 0 0 0.211764706   0 0 0 0 0.658823529   0 0 0 0 1  0 0 0 1 0" type="matrix" in="shadowBlurOuter1"></feColorMatrix>
        </filter>
        <polygon id="path-3" points="0 0.0576710526 24.9871538 0.0576710526 24.9871538 14.9644995 0 14.9644995"></polygon>
        <linearGradient x1="113.184754%" y1="50%" x2="22.85977%" y2="74.0898728%" id="linearGradient-5">
            <stop stop-color="#FFFFFF" offset="0%"></stop>
            <stop stop-color="#83CCFF" offset="100%"></stop>
        </linearGradient>
        <linearGradient x1="113.184754%" y1="50%" x2="22.85977%" y2="80.0826404%" id="linearGradient-6">
            <stop stop-color="#FFFFFF" offset="0%"></stop>
            <stop stop-color="#83CCFF" offset="100%"></stop>
        </linearGradient>
        <linearGradient x1="113.184754%" y1="50%" x2="22.85977%" y2="73.7689998%" id="linearGradient-7">
            <stop stop-color="#FFFFFF" offset="0%"></stop>
            <stop stop-color="#83CCFF" offset="100%"></stop>
        </linearGradient>
        <linearGradient x1="113.184754%" y1="50%" x2="22.85977%" y2="71.2263111%" id="linearGradient-8">
            <stop stop-color="#FFFFFF" offset="0%"></stop>
            <stop stop-color="#83CCFF" offset="100%"></stop>
        </linearGradient>
        <linearGradient x1="113.184754%" y1="50%" x2="22.85977%" y2="72.5286046%" id="linearGradient-9">
            <stop stop-color="#FFFFFF" offset="0%"></stop>
            <stop stop-color="#83CCFF" offset="100%"></stop>
        </linearGradient>
        <linearGradient x1="113.184754%" y1="50%" x2="22.85977%" y2="70.6035682%" id="linearGradient-10">
            <stop stop-color="#FFFFFF" offset="0%"></stop>
            <stop stop-color="#83CCFF" offset="100%"></stop>
        </linearGradient>
        <linearGradient x1="113.184754%" y1="50%" x2="22.85977%" y2="70.4749971%" id="linearGradient-11">
            <stop stop-color="#FFFFFF" offset="0%"></stop>
            <stop stop-color="#83CCFF" offset="100%"></stop>
        </linearGradient>
    </defs>
    <g id="Page-1" stroke="none" stroke-width="1" fill="none" fill-rule="evenodd">
        <g id="拓扑" transform="translate(-1082.000000, -234.000000)">
            <g id="changping" transform="translate(1107.000000, 272.000000)">
                <g id="多边形备份-14" opacity="0.300000012">
                    <use fill="black" fill-opacity="1" filter="url(#filter-2)" xlink:href="#path-1"></use>
                    <use fill="#36A8FF" fill-rule="evenodd" xlink:href="#path-1"></use>
                </g>
                <path d="M199.747018,2.83652135 L482.27017,149.136657 C488.155335,152.184196 490.455684,159.425583 487.408145,165.310748 C486.256343,167.535016 484.437393,169.343108 482.206268,170.481571 L314.225195,256.196327 C310.776636,257.956004 306.690943,257.943772 303.252982,256.163479 L20.72983,109.863343 C14.8446655,106.815804 12.5443156,99.574417 15.5918548,93.6892525 C16.7436569,91.4649841 18.5626074,89.6568922 20.7937323,88.5184286 L188.774805,2.80367276 C192.223364,1.04399591 196.309057,1.05622765 199.747018,2.83652135 Z" id="多边形备份-11" stroke="#36A8FF" stroke-width="2" stroke-dasharray="8"></path>
                <g id="编组" transform="translate(313.000000, 83.000000) rotate(-3.000000) translate(-313.000000, -83.000000) translate(206.000000, 22.000000)">
                    <g>
                        <mask id="mask-4" fill="white">
                            <use xlink:href="#path-3"></use>
                        </mask>
                        <g id="Clip-2"></g>
                        <path d="M9.22548718,12.7859605 C7.94894872,12.0295132 7.98292308,11.263 9.31061538,10.4762895 L22.740359,2.51859211 L24.5275385,3.57760526 L19.1147821,6.78490789 C20.9871538,7.28918421 22.9446538,7.64221053 24.9871538,7.86411842 L24.561641,9.32655263 C21.8382436,8.90293421 19.4723462,8.38859211 17.4297179,7.78339474 L11.3701667,11.3739211 C10.9617051,11.6159605 10.9276667,11.8378684 11.2680513,12.0396447 L13.1914487,13.1793158 C13.4977949,13.3608289 13.8383077,13.4012237 14.2127308,13.3406974 C14.6042051,13.2499079 15.6085,12.7556974 17.2084359,11.848 L18.3148462,13.16925 C16.2382436,14.2786579 14.8254872,14.8737237 14.1106154,14.9543816 C13.3958077,15.0149079 12.6297821,14.8031316 11.8468333,14.3391842 L9.22548718,12.7859605 Z M20.4254872,1.12675 L4.81702564,10.3754342 L3.01273077,9.30635526 L5.63407692,7.75306579 C3.72760256,7.30931579 1.83824359,6.77477632 -2.56410256e-05,6.16964474 L1.32760256,4.85846053 C3.21702564,5.59471053 5.24247436,6.20997368 7.42125641,6.69411842 L12.3914487,3.74905263 L8.15311538,1.23767105 L9.83824359,0.239184211 L14.0765128,2.75056579 L18.6211923,0.0576710526 L20.4254872,1.12675 Z" id="Fill-1" fill="url(#linearGradient-5)" mask="url(#mask-4)"></path>
                    </g>
                    <path d="M41.5263444,20.1842254 L31.4214475,16.1849996 L25.1234776,19.7923321 C24.8426869,19.9531138 24.8251788,20.123924 25.1059034,20.2847058 L30.0355307,23.1082516 C30.38642,23.3092124 30.7372432,23.3695794 31.1056406,23.3193064 C31.4916121,23.259005 32.4038845,22.836961 33.8775401,22.0532399 L35.052963,23.3896361 C33.0529405,24.4145627 31.6670237,24.947181 30.9478032,24.9973884 C30.2285165,25.0275391 29.4390653,24.7964276 28.5970236,24.3140822 L22.8954531,21.0483701 C21.6674398,20.3450072 21.7024561,19.6215219 23.0007001,18.8779143 L29.2285053,15.3107609 L22.8427966,12.7785625 L24.3338942,11.6029481 L31.052984,14.2657776 L36.7544884,11 L38.6141156,12.0651711 L33.2459263,15.1399508 L43,18.998517 L41.5263444,20.1842254 Z" id="Fill-3" fill="url(#linearGradient-6)"></path>
                    <path d="M56.7473346,23.8406988 L63,27.5505662 L59.8235183,29.4352637 L58.0848304,28.4036234 L59.656292,27.4711744 L48.7058009,20.973989 L47.1342764,21.9063733 L45.4123363,20.8846975 L48.588755,19 L54.9752141,22.7892591 C55.2092428,22.4519573 55.4099018,22.1345196 55.5603173,21.8270463 L57.6501427,22.7098674 C57.3993032,23.0570689 57.0984092,23.4339696 56.7473346,23.8406988 M49.7089699,29.1673892 C49.1739842,29.7625364 48.48852,30.3081203 47.6358924,30.8338402 C46.2650269,31.6472339 45.1448749,32.0737625 44.2754995,32.1531543 C43.2222759,32.2424458 41.9015279,31.8357166 40.3633731,30.9231317 L39.8451352,30.6156584 L40.7981237,29.3558719 L41.6674362,29.8716273 C42.5702443,30.4073115 43.2723934,30.6652216 43.7405138,30.6652216 C44.32568,30.6354578 45.0780096,30.367648 45.9640698,29.8419282 C46.0978005,29.7625364 46.1981615,29.6832093 46.2984595,29.6236817 C43.1553475,29.3459075 39.7280893,28.6218052 36,27.4414105 L36.6185359,26.0427693 C40.7981237,27.4315108 44.4761585,28.2449046 47.6693251,28.4730508 C47.8866689,28.2250404 48.0705171,27.9968942 48.2210586,27.768748 C45.5293821,27.5207376 42.5200638,26.8660628 39.2265992,25.7848593 L39.8451352,24.3862181 C43.2389607,25.5864769 46.2148464,26.3205435 48.7559814,26.598253 C48.8229097,26.3998706 48.8395945,26.2114526 48.8730272,26.0328696 C48.8395945,26.0130055 48.789414,26.0031058 48.7727292,26.0130055 C47.1844569,25.6856681 45.0612618,25.1004206 42.4532614,24.2671627 L43.0216169,22.8784859 C44.8438549,23.6025882 46.7163994,24.1978001 48.6222507,24.6738919 C49.0736862,24.7829829 49.5249958,24.8921385 49.9596835,24.9913297 L46.4823078,22.9281139 L48.0872649,21.9758007 L57.9844694,27.8481398 L56.3795752,28.8003882 L52.7182883,26.6280168 C52.0996894,26.5585895 51.5145861,26.4891621 50.9294199,26.3998706 C50.8959243,26.9752184 50.7455087,27.5208023 50.4779844,28.0366225 C52.3504659,28.6516338 54.3399933,29.0979618 56.4798732,29.375736 L56.4798732,30.7644128 C55.0922599,30.5759948 53.7047095,30.3081203 52.3504659,29.9609188 C51.230314,31.538143 50.9127351,33.1748302 51.430973,34.871045 L48.7393595,35 C48.4551503,33.0657392 49.0402535,31.2108056 50.4780473,29.4252993 C50.210523,29.3459075 49.9597465,29.2566807 49.7089699,29.1673892" id="Fill-5" fill="url(#linearGradient-7)"></path>
                    <path d="M72.3157593,35.6473647 L65.1766119,31.3954988 L64.127736,32.0201933 L71.2668834,36.2720592 L72.3157593,35.6473647 Z M73.7368354,34.8010532 L74.8025947,34.1662374 L67.663511,29.9143715 L66.597688,30.5491216 L73.7368354,34.8010532 Z M64.3646776,41.6523843 L65.6673148,40.8765933 L56.2443156,35.2644641 L54.9417421,36.0403209 L64.3646776,41.6523843 Z M67.1221578,40.0101049 L68.3402503,39.2846574 L58.9172511,33.6725283 L57.6992223,34.3979757 L67.1221578,40.0101049 Z M78,34.2972885 L71.4868142,38.1763094 L60.913511,31.8790866 L67.4266331,28 L78,34.2972885 Z M63.941827,44 L62.1823176,42.9521826 L62.8421097,42.5592264 L53.4191105,36.9470973 L52.759382,37.3400535 L51,36.2921704 L58.6634898,31.7279244 L71.6052531,39.4358197 L63.941827,44 Z" id="Fill-7" fill="url(#linearGradient-7)"></path>
                    <path d="M93.9223539,47.5332061 C92.0526868,48.0228606 90.0584243,48.4025514 87.9750407,48.672409 L87.1559842,47.2534407 C89.2927466,46.9736102 91.2514009,46.5938542 93.0320139,46.134249 L93.9223539,47.5332061 Z M81.4223875,44.1556197 L78.8226509,43.6559922 C79.7307615,42.5068163 80.4429933,41.4075705 80.9771839,40.3883043 L83.5412452,40.8879318 C82.989284,41.9171711 82.2770522,42.9964056 81.4223875,44.1556197 L81.4223875,44.1556197 Z M98,46.164168 L96.1837117,47.1834342 L89.7556537,43.5760778 L83.6302993,47.0135674 L90.7172102,50.9907068 L88.9188266,52 L81.8319157,48.0228606 L75.7422366,51.4404041 L73.8547318,50.3811156 L79.944478,46.963572 L73,43.066347 L74.7984507,42.0570537 L81.7428616,45.9542788 L87.868216,42.5167893 L81.6359698,39.0192662 L83.4521911,38 L98,46.164168 Z" id="Fill-9" fill="url(#linearGradient-8)"></path>
                    <path d="M109.508439,52.0178133 L107.372842,53.2644895 L113,56.549503 L111.271199,57.5587324 L105.644041,54.2737834 L103.186416,55.7084678 L109.711933,59.5178133 L107.983131,60.5270427 L102.881367,57.5487931 C102.06784,59.3298051 102.186438,61.417581 103.220374,63.8021169 L100.372933,64 C99.7288136,61.2493223 100.11863,58.8252227 101.491509,56.7374468 L101.457615,56.7176326 L93.9152691,61.1206919 L92.1186154,60.0718988 L99.6610888,55.6688396 L99.6441097,55.6589648 C95.6949438,56.5593778 91.4746235,56.7473215 87,56.2130502 L87.660971,54.6397961 C91.4575806,55.2730734 94.9830357,55.3522654 98.2372724,54.8376791 L93.1355723,51.859494 L94.8643737,50.8502646 L101.389826,54.6596747 L103.847387,53.2249258 L98.3389554,50.0092294 L100.067757,49 L105.576252,52.2156964 L107.711849,50.9690203 L109.508439,52.0178133 Z" id="Fill-11" fill="url(#linearGradient-9)"></path>
                    <path d="M117.962686,64.4848766 L116.166034,64.1313196 L118.852602,65.7474952 L122.529885,63.5353594 L116.686527,60.0202154 L118.382445,59 L124.22574,62.515144 L125.971994,61.4646859 L127.751889,62.5353718 L126.005509,63.5858958 L132,67.1919657 L130.304145,68.2121152 L124.309654,64.6060453 L120.632434,66.8181811 L121.97575,67.6263018 C123.638027,67.3131344 125.283547,66.909107 126.929129,66.4243005 L128.037335,67.8181687 C126.542949,68.1919534 125.098898,68.4747462 123.705247,68.666679 L127.09702,70.7071098 L125.401165,71.7272593 L120.279895,68.6464513 C119.759339,70.3737147 120.128762,72.4343072 121.404922,74.8181481 L118.684775,75 C117.74446,72.2929108 117.777975,69.9292977 118.785446,67.9292565 L112.287282,71.838347 L110.50745,70.7676612 L117.022371,66.8484897 C113.613841,67.5858464 109.617534,67.5656186 105,66.7878724 L105.60447,65.252476 C109.718269,66.0909053 113.126863,66.3232277 115.77979,65.9393621 L110.65852,62.8585542 L112.354438,61.8384047 L115.796611,63.9090782 C116.317167,63.0303251 116.703347,62.2121235 116.938458,61.4444582 L119.221962,61.9292647 C118.902938,62.7273045 118.483116,63.5858299 117.962686,64.4848766" id="Fill-13" fill="url(#linearGradient-7)"></path>
                    <path d="M146.487339,76.833255 L144.012565,76.8427655 C144.097986,76.0327546 143.944369,75.0321602 143.534745,73.850555 L146.026488,73.869576 C146.333658,74.9559517 146.504436,75.9470355 146.487339,76.833255 L146.487339,76.833255 Z M142.015802,78.8344438 L139.455735,78.8343816 C139.558125,78.0149224 139.438638,76.9761615 139.097338,75.7563899 L141.589081,75.7754731 C141.896315,76.899953 142.032899,77.9100579 142.015802,78.8344438 L142.015802,78.8344438 Z M142.835049,83.1036135 L141.008872,82.3698732 L136.298426,85 L134.506314,83.9994056 L138.926624,81.5312686 L133.055567,79.1488506 L134.523347,78.0244329 L140.718671,80.530612 L150.207953,75.2323164 L152,76.2329108 L142.800919,81.3692788 L144.285733,81.969623 L142.835049,83.1036135 Z M136.332491,72.3448459 L138.295188,71.2489598 C137.458844,70.8963865 136.622564,70.5247301 135.786348,70.1340526 L137.100447,69 C139.472768,70.1340526 141.759731,71.0488658 144.012629,71.7349912 L142.971505,73.0214608 C142.118128,72.7355856 141.247718,72.4401377 140.360275,72.097075 L138.124538,73.3454403 L140.240788,74.5271077 L138.517001,75.4895979 L136.400687,74.3079305 L135.820414,74.63191 C136.025258,75.5086189 136.178875,76.4330048 136.264167,77.414516 L133.755391,77.6908807 C133.925977,76.852276 134.045464,76.1566401 134.079658,75.6039107 L126.792047,79.6729863 L125,78.6723919 L132.13393,74.6890975 C130.08594,75.1465351 127.952594,75.4419209 125.80215,75.5753169 L127.01386,74.0219931 C129.642187,74.0410763 132.0998,73.7552011 134.386827,73.1834506 L131.99741,71.849304 L133.721197,70.8868139 L136.332491,72.3448459 Z" id="Fill-15" fill="url(#linearGradient-7)"></path>
                    <path d="M153.98362,91.1952555 C155.95327,91.1952555 157.870267,90.976858 159.699242,90.540063 L155.232277,88.1282141 C154.352926,89.0397727 153.9309,90.0652994 153.98362,91.1952555 L153.98362,91.1952555 Z M162.143703,85.5548897 L164.44749,84.3109656 L166.241363,85.2795701 L163.937576,86.5234943 L168,88.7169458 L166.258914,89.6569964 L162.19649,87.463483 L159.822299,88.7454378 L163.216517,90.5780937 L161.598621,91.4516836 C159.259599,92.1448447 156.797387,92.486687 154.229802,92.5056403 C154.528836,93.4836597 155.16194,94.5471551 156.076461,95.6866498 L153.596698,96 C152.664626,94.6990918 152.066756,93.502675 151.820509,92.4201643 C149.499105,92.2492742 147.072128,91.8314326 144.539645,91.1667634 L145.225602,89.8658553 C147.459051,90.5020943 149.604611,90.919874 151.662216,91.1003027 C151.679768,89.6474578 152.29532,88.3465496 153.508743,87.1976401 L152.594288,86.7038611 L154.317757,85.7732872 L158.028493,87.7768951 L160.402684,86.4949403 L156.340127,84.3014889 L158.081213,83.3614382 L162.143703,85.5548897 Z M139,87.8717859 L140.318928,86.7418298 C140.6883,87.0172113 141.075156,87.2641008 141.497248,87.491975 C141.884038,87.7008339 142.306196,87.6818805 142.763456,87.434991 L146.298283,85.5263977 C145.471717,85.3269536 144.645151,85.1085561 143.836137,84.8996973 L145.172749,83.6652498 C146.122439,83.9881387 147.107297,84.2729349 148.109706,84.5483784 L151.750105,82.582801 L149.815557,81.538259 L151.591812,80.5791931 L153.526294,81.6237351 L156.533588,80 L158.327461,80.9685426 L155.320166,82.5922777 L156.973297,83.484883 L155.197042,84.443887 L153.543911,83.5513437 L150.624572,85.1276334 C151.451137,85.2890468 152.29532,85.4409836 153.174606,85.573905 L151.3808,86.5424477 C150.519065,86.3999876 149.674882,86.2480509 148.848383,86.0866374 L144.100002,88.6504231 C142.88658,89.3056156 141.673092,89.3151542 140.51239,88.6883918 L139,87.8717859 Z" id="Fill-17" fill="url(#linearGradient-10)"></path>
                    <path d="M165.847076,98.0684677 L166.931239,98.6666895 C167.275367,98.8186297 167.722797,98.7806601 168.256227,98.5812116 C168.789722,98.3628092 169.942645,97.7836031 171.680715,96.8435315 L170.390076,96.1313391 C168.875786,96.9290094 167.361431,97.5746777 165.847076,98.0684677 L165.847076,98.0684677 Z M159.858612,99.3218966 L159.720896,97.9544971 C162.697889,97.6981252 165.761077,96.7295609 168.89296,95.0772968 L173.831738,92.3520366 L178.787821,95.0868356 C179.527792,94.640554 180.336523,94.1942104 181.179797,93.728913 L182.831738,94.640554 L180.439826,95.9984146 L182.298309,97.0239643 C182.711326,96.4162656 183.003802,95.8369976 183.158692,95.2956991 L185,95.723027 C184.810698,96.302295 184.518157,96.881501 184.105204,97.4512921 L182.401547,97.0809496 L184.139617,98.040037 L182.504785,98.9420772 L178.87382,96.9384863 C176.946512,98.1159761 175.552634,99.0560478 174.657838,99.7777171 C174.554535,99.8537182 174.451297,99.9296573 174.382407,100.005596 C175.982826,99.6543315 177.617593,99.1889722 179.252425,98.6097662 L180.095634,99.7397476 C177.462768,100.622834 174.984792,101.230595 172.661576,101.581921 C172.3691,101.895279 172.145385,102.170666 172.024908,102.408084 C171.646303,103.034737 171.525891,103.386126 171.697954,103.48108 C171.835605,103.55702 172.713227,103.224709 174.348059,102.4935 L175.002031,103.765945 C172.265862,104.876911 170.544966,105.237776 169.839472,104.84848 C169.219978,104.50663 169.082262,103.8609 169.443628,102.920828 C169.564105,102.588455 169.753343,102.237128 170.011536,101.866786 C167.9121,101.99971 165.967553,101.914232 164.143484,101.629368 L164.470437,100.271445 C166.621395,100.660803 168.875721,100.727266 171.216176,100.499448 C171.594716,100.119567 172.024908,99.7302707 172.506751,99.3124197 C173.608088,98.3628711 175.17403,97.2708593 177.221814,96.0269073 L173.917738,94.2036873 L171.904431,95.3147149 L174.778251,96.9005168 C171.543065,98.6857053 169.426454,99.6827623 168.445594,99.9201804 C167.481908,100.147998 166.638634,100.081536 165.881489,99.701778 L164.7285,99.0655247 L165.623361,98.1349919 C163.696053,98.7426286 161.768681,99.1414638 159.858612,99.3218966 L159.858612,99.3218966 Z M168.307814,91.2979943 L172.472273,89 L174.227452,89.9685643 L170.063122,92.2665586 L171.388175,92.9977668 L169.701756,93.9283616 L168.376639,93.1971534 L163.868117,95.6850574 C164.487546,95.7989661 165.089866,95.884444 165.70936,95.9603831 L163.97142,96.9194706 C161.940744,96.634606 159.961785,96.2452477 158,95.7514577 L159.273401,94.5550141 C159.927372,94.7639395 160.615692,94.9728031 161.321186,95.1532978 L166.621395,92.2285891 L165.279169,91.487904 L166.965587,90.5573092 L168.307814,91.2979943 Z" id="Fill-19" fill="url(#linearGradient-7)"></path>
                    <path d="M194.993395,103.47526 C195.066155,104.335257 194.538537,105.082596 193.374295,105.737778 C192.246366,106.372525 190.790944,106.700149 189.026324,106.751303 C187.971155,106.771804 186.37028,106.648928 184.241718,106.413461 C182.040396,106.157559 180.475833,106.137057 179.529942,106.341806 L185.933647,109.945472 L184.059816,111 L175,105.90159 C176.327987,105.154184 177.89255,104.744754 179.748156,104.68325 C180.766945,104.642313 182.568014,104.754972 185.114916,105.021091 C186.533958,105.164469 187.607282,105.215689 188.353183,105.205405 C189.553874,105.164469 190.536281,104.939285 191.263958,104.529789 C191.973479,104.130509 192.300902,103.720945 192.282746,103.321733 C192.246297,102.912169 191.846044,102.502672 191.100212,102.082891 C190.299775,101.632458 189.426508,101.448211 188.48048,101.530083 C187.570833,101.591521 186.570338,101.908861 185.515169,102.461736 L183.386608,101.263897 C184.860185,100.455121 186.442972,100.035406 188.171213,100.004687 C189.972282,99.9534668 191.573226,100.322027 192.973974,101.110302 C194.229338,101.816771 194.902409,102.605046 194.993395,103.47526" id="Fill-21" fill="url(#linearGradient-11)"></path>
                    <path d="M207.642233,116.520182 L206.083145,117.39928 L196.537655,112.017076 L198.096743,111.137978 L207.642233,116.520182 Z M205.961795,118.73752 L204.333355,119.655676 L197.819595,115.982924 C195.584795,116.246647 193.74856,116.383383 192.34527,116.393131 C194.372208,117.360158 196.485722,118.297939 198.63388,119.196598 C198.720456,118.737456 198.789743,118.268629 198.859095,117.799802 L200.989833,118.083023 C200.903257,119.675237 200.695396,120.984166 200.348961,122 L197.888947,121.765587 C198.044875,121.384625 198.183449,120.993915 198.304734,120.593456 C195.238426,119.274714 191.998835,117.780241 188.60338,116.100099 L189.712103,115.025582 C189.919899,115.084201 190.093247,115.123323 190.231821,115.142821 C191.288545,115.289369 193.194198,115.211252 195.896717,114.898659 L192.4492,112.954793 L194.07764,112.036573 L205.961795,118.73752 Z M201.007188,107.934053 L199.517322,108.774093 L209.080036,114.166045 L210.569902,113.326006 L201.007188,107.934053 Z M196.693583,110.366307 C193.020981,112.417599 189.157742,113.794833 185.138574,114.498136 L185,113.072032 C188.222237,112.485966 191.531115,111.245404 194.909215,109.360158 L200.868614,106 L214,113.404186 L209.23603,116.09035 L197.888947,109.692313 L196.693583,110.366307 Z" id="Fill-23" fill="url(#linearGradient-10)"></path>
                </g>
            </g>
        </g>
    </g>
</svg>