<?xml version="1.0" encoding="UTF-8"?>
<svg width="126px" height="103px" viewBox="0 0 126 103" version="1.1" xmlns="http://www.w3.org/2000/svg" xmlns:xlink="http://www.w3.org/1999/xlink">
    <!-- Generator: Sketch 55 (78076) - https://sketchapp.com -->
    <title>cn2</title>
    <desc>Created with Sketch.</desc>
    <defs>
        <polygon id="path-1" points="0 0.0641361288 117.929095 0.0641361288 117.929095 100.869852 0 100.869852"></polygon>
        <path d="M45.4093752,2.18762939 C35.2243214,6.5086262 26.4301718,16.5392204 21.8872265,27.77623 L21.8872265,27.77623 C9.29425406,35.7518978 -0.121357405,52.1713482 0.05644427,67.0371629 L0.05644427,67.0371629 C0.257596481,83.8114249 12.5906183,92.2422748 27.5968546,85.876754 L27.5968546,85.876754 C29.6024687,85.0257125 31.5481592,83.9542492 33.4176088,82.6977891 L33.4176088,82.6977891 C38.3499173,82.5063259 43.8733038,81.2310288 49.7024979,78.7580319 L49.7024979,78.7580319 C59.0941962,74.7744153 67.6323339,68.3776869 74.1173123,61.068345 L74.1173123,61.068345 C75.7254047,60.7793227 77.3942647,60.2825304 79.1075752,59.5557572 L79.1075752,59.5557572 C91.9199863,54.1205623 102.164964,38.1127157 101.993351,23.7954249 L101.993351,23.7954249 C101.821739,9.47813419 91.2988058,2.2795655 78.4863946,7.71476038 L78.4863946,7.71476038 C76.0157391,8.76288818 73.6390483,10.2051885 71.4184967,11.9508498 L71.4184967,11.9508498 C68.7208064,4.43373802 62.6845521,0.0657891374 55.069464,0.0657891374 L55.069464,0.0657891374 C52.0597768,0.0657891374 48.8036429,0.747859425 45.4093752,2.18762939" id="path-3"></path>
        <linearGradient x1="0.000108683689%" y1="50.0000139%" x2="100.000052%" y2="50.0000139%" id="linearGradient-5">
            <stop stop-color="#14C6FF" offset="0%"></stop>
            <stop stop-color="#148CFF" offset="100%"></stop>
        </linearGradient>
    </defs>
    <g id="Page-1" stroke="none" stroke-width="1" fill="none" fill-rule="evenodd">
        <g id="拓扑" transform="translate(-1026.000000, -479.000000)">
            <g id="cn2" transform="translate(1026.000000, 479.000000)">
                <g id="编组备份">
                    <g id="编组">
                        <mask id="mask-2" fill="white">
                            <use xlink:href="#path-1"></use>
                        </mask>
                        <g id="Clip-2"></g>
                        <path d="M103.608116,21.7362301 C103.85182,21.6494838 104.095805,21.5607531 104.337824,21.4833618 C104.487191,21.4354529 104.634593,21.3960485 104.783398,21.3518249 C104.999026,21.2871904 105.215495,21.2200045 105.429438,21.1630241 C105.584701,21.1219188 105.737438,21.0887511 105.891578,21.0513311 C106.093167,21.0022882 106.295318,20.9509775 106.494941,20.9084548 C106.934339,20.8151883 107.368682,20.7403484 107.799095,20.6785487 C107.913085,20.6621066 108.025111,20.6504837 108.137978,20.636593 C108.468158,20.5952042 108.795249,20.5626035 109.119252,20.5396412 C109.252615,20.5302862 109.385698,20.5195138 109.517657,20.5132771 C109.717562,20.5033552 109.915501,20.4996699 110.11316,20.496835 C110.267019,20.4948506 110.42144,20.4914488 110.573614,20.4937167 C110.7738,20.496268 110.971458,20.5059065 111.169117,20.5158285 C111.317361,20.5231991 111.467008,20.5283018 111.614129,20.5396412 C111.758723,20.5509806 111.901352,20.5677062 112.044542,20.5830144 C112.218616,20.6014409 112.392971,20.6193004 112.564519,20.6433966 C112.707147,20.663524 112.84753,20.6884707 112.988474,20.7122834 C113.158898,20.7411988 113.329322,20.7701143 113.497501,20.8046994 C113.619633,20.8299295 113.740362,20.858278 113.861372,20.886343 C114.034604,20.9268813 114.206994,20.9691205 114.377137,21.0153285 C114.498709,21.0484962 114.618876,21.0833649 114.738763,21.1193674 C114.86258,21.1565039 114.984713,21.1973257 115.107126,21.237864 C115.553543,21.3855596 115.990974,21.5516816 116.415491,21.7421833 C116.477259,21.7699648 116.537343,21.8011481 116.598831,21.8297801 C117.014644,22.0236836 117.42063,22.2348797 117.813139,22.4690381 C117.851042,22.4917169 117.891192,22.5112773 117.929095,22.5345231 L94.0887795,7.98948973 C94.0705297,7.97843383 94.05228,7.96737793 94.0340303,7.95660551 C94.0146575,7.94469915 93.9927578,7.93619461 93.9733851,7.92428825 C93.5803141,7.69012988 93.1740472,7.47865029 92.7579535,7.28446327 C92.7169618,7.26546979 92.67962,7.24023965 92.6380668,7.22124618 C92.6178518,7.21217467 92.5953906,7.20622149 92.5751755,7.19686649 C92.1506588,7.00664826 91.713227,6.8408097 91.2665299,6.69283068 C91.2230114,6.67837296 91.1825812,6.65767858 91.1385011,6.64350435 C91.0596061,6.61827421 90.9781843,6.59843028 90.898447,6.57433408 C90.7782796,6.53833152 90.6575507,6.5034629 90.5359795,6.47029519 C90.3663974,6.42408718 90.1951308,6.38213145 90.0227411,6.34187662 C89.9008891,6.31352815 89.7790371,6.28489619 89.6557813,6.25938257 C89.6029974,6.24861015 89.5518982,6.23443591 89.4991144,6.22423046 C89.3842815,6.20211866 89.2660795,6.18737745 89.1504043,6.16781701 C89.0083372,6.14372081 88.8668317,6.11849067 88.72308,6.09836325 C88.5515326,6.07426705 88.3774583,6.05612403 88.2036648,6.03798101 C88.0607554,6.02267284 87.9186884,6.00594724 87.7740944,5.99460785 C87.7356296,5.991773 87.6980071,5.98581983 87.6592615,5.98326846 C87.5494824,5.97533089 87.4363341,5.97618135 87.3257127,5.97079514 C87.1291772,5.96115666 86.9329225,5.95123469 86.7338602,5.94868333 C86.581124,5.94641545 86.4264225,5.94981727 86.271721,5.95208515 C86.074624,5.95491999 85.8769655,5.95860529 85.6773416,5.96824377 C85.6166963,5.97107862 85.5577357,5.9696612 85.4970904,5.97306301 C85.4249338,5.97731528 85.3502504,5.98950513 85.2780938,5.99460785 C84.9546525,6.0178536 84.6284036,6.05017085 84.2996278,6.09127614 C84.1853565,6.10545037 84.072489,6.11707324 83.9576561,6.13351536 C83.5275241,6.19531502 83.0937422,6.27043847 82.6546258,6.36342145 C82.638903,6.36682327 82.6237417,6.36852418 82.6080188,6.37164251 C82.4218717,6.41161386 82.2331976,6.46207413 82.0456466,6.50771517 C81.893472,6.54485167 81.7427012,6.57716892 81.5896843,6.61770724 C81.3709684,6.67610509 81.1502871,6.7444249 80.9298866,6.81047684 C80.7855734,6.85356651 80.6429448,6.89155346 80.49807,6.93804496 C80.253243,7.01657022 80.0061698,7.10615139 79.7596582,7.19403165 C79.6369639,7.23768829 79.5153926,7.27595873 79.3924176,7.32216673 C79.0218078,7.46107424 78.6489519,7.6101872 78.2738499,7.77092303 C77.2038546,8.22960128 76.1554782,8.77644328 75.1256322,9.37743086 L63.7802003,2.45558477 C63.7583007,2.44226099 63.7361202,2.42922069 63.7142206,2.41589691 C63.4393516,2.24977487 63.1588674,2.09329131 62.873891,1.94417836 C62.8011729,1.90619141 62.7259278,1.87274021 62.6526482,1.8358872 C62.4631318,1.74035285 62.2744578,1.64368457 62.0807299,1.55580431 C62.0431074,1.53851174 62.0035196,1.52433751 61.9653355,1.50732842 C61.8513449,1.45658466 61.7348275,1.41037665 61.6191523,1.36218425 C61.4209322,1.27940672 61.2215891,1.19861358 61.0188768,1.12377362 C60.8925326,1.07671515 60.7645037,1.03249154 60.6364749,0.988834895 C60.5328726,0.953115822 60.4315165,0.913144478 60.3270719,0.879693282 C60.2341387,0.849927388 60.1383978,0.826398157 60.0446223,0.798333171 C59.9048014,0.756377435 59.7641381,0.715555637 59.6223518,0.676718232 C59.4232894,0.622572653 59.2222617,0.573246314 59.0195494,0.526187853 C58.8780439,0.493020142 58.7368191,0.459568947 58.5939097,0.430086537 C58.5335452,0.41761321 58.4745846,0.401454582 58.4136586,0.389548224 C58.2786106,0.363184146 58.139632,0.345891579 58.0031802,0.322645833 C57.8355635,0.294297362 57.6685083,0.264531468 57.4989263,0.240718753 C57.2998639,0.212653767 57.0982747,0.191675898 56.8966854,0.170414545 C56.7259803,0.152271524 56.5563983,0.132427595 56.3840086,0.118820329 C56.3388054,0.115418512 56.2947253,0.108614879 56.2492414,0.105213063 C56.1217741,0.0964250369 55.9903761,0.097275491 55.8617857,0.0910388275 C55.6315584,0.0791324698 55.4013312,0.0680765662 55.1680155,0.0649582344 C54.9888874,0.0624068721 54.807794,0.066375658 54.6272621,0.0686435356 C54.3970348,0.0720453521 54.1659653,0.0762976227 53.9329303,0.087637011 C53.861616,0.0910388275 53.7928286,0.0893379192 53.7215143,0.0933067051 C53.6356002,0.0984094299 53.5468785,0.11286715 53.4609644,0.118820329 C53.0926008,0.145184407 52.7211487,0.181753934 52.3466082,0.227961941 C52.2084719,0.244971023 52.0714585,0.259712228 51.9324799,0.279556158 C51.4335605,0.350710819 50.9304297,0.436039716 50.421122,0.54348042 C50.4087684,0.546031782 50.397257,0.547165721 50.3849033,0.550000568 C50.1586068,0.597909484 49.9292218,0.658575211 49.7009599,0.713854729 C49.521551,0.757511374 49.343546,0.794931355 49.1630142,0.84284027 C48.9058334,0.91144357 48.6458451,0.992236711 48.386699,1.06962804 C48.2176785,1.12008831 48.0500618,1.16402844 47.8799182,1.21874099 C47.5904495,1.31115701 47.298454,1.41746377 47.0064584,1.52121917 C46.8638298,1.57224642 46.722605,1.61647004 46.5794149,1.67004865 C46.1433868,1.83333584 45.704832,2.00909636 45.2637502,2.19818065 C44.6952011,2.44169402 44.1328289,2.70930358 43.5738258,2.98825253 C43.4567468,3.04665038 43.339387,3.10448126 43.2225888,3.16429654 C42.6807124,3.44267852 42.1427667,3.73495125 41.6104363,4.04480004 C41.5191877,4.09809516 41.4293429,4.15422513 41.3380943,4.20808723 C40.8478786,4.49922602 40.3621552,4.80312163 39.8809241,5.11977405 C39.8003445,5.17278569 39.7192034,5.22324596 39.6386239,5.27710806 C39.1186472,5.62522728 38.605128,5.9900721 38.0972242,6.36653979 C37.9857605,6.44903384 37.8754198,6.53266182 37.7645177,6.6165733 C37.2582984,6.99984462 36.7557291,7.39190397 36.2624251,7.80182286 C36.256529,7.80692558 36.2509137,7.81202831 36.2450176,7.81713103 C36.1054774,7.93335976 35.970991,8.05894349 35.8325739,8.17715661 C35.4229378,8.52669325 35.014144,8.87793081 34.6146154,9.2450435 C34.4124646,9.4304425 34.2178945,9.6268974 34.0188321,9.81654867 C33.7181328,10.1028682 33.4137836,10.3838016 33.1195419,10.6794761 C33.088377,10.7106594 33.0586159,10.7438271 33.0277318,10.7750105 C32.923568,10.8801833 32.8230541,10.9896084 32.7197326,11.0959152 C32.3468767,11.47947 31.9793554,11.8695449 31.6174493,12.2678409 C31.4694862,12.4305612 31.3232076,12.5949823 31.1772098,12.7599704 C31.0418811,12.9130521 30.9029024,13.0615981 30.7689775,13.2166642 C30.6695867,13.3320425 30.5786189,13.4564923 30.4803511,13.5730045 C30.0151236,14.1218309 29.5608458,14.6819967 29.1172372,15.2532184 C29.0184079,15.379936 28.911998,15.4984327 28.8145725,15.6262843 C28.7735809,15.6801464 28.7368006,15.7374103 28.695809,15.7915558 C28.1654439,16.492897 27.6491171,17.206995 27.1524439,17.9372516 C27.1409325,17.9542607 27.1282981,17.9698523 27.1167867,17.9865779 C27.0449109,18.0926012 26.9806157,18.2040107 26.9093014,18.3106009 C26.513142,18.9042179 26.1268094,19.504922 25.7539535,20.1149811 C25.7053812,20.1946403 25.6517551,20.2703307 25.6034635,20.3499899 C25.4984574,20.5237661 25.4052434,20.7040623 25.3024835,20.8789724 C25.0158224,21.3662826 24.7350574,21.8564277 24.4638385,22.3525259 C24.3894358,22.488882 24.3068909,22.6204189 24.2336112,22.7573421 C24.1569624,22.9010688 24.0901403,23.0496148 24.0146145,23.1939085 C23.7506954,23.6979443 23.4968839,24.2059489 23.2500915,24.7176388 C23.1636159,24.8965177 23.0670327,25.0708608 22.9828032,25.2503066 C22.9404077,25.3404547 22.9055929,25.4331542 22.8637589,25.5233023 C22.5537943,26.1940272 22.2598334,26.8698547 21.9801915,27.5505015 C21.9352691,27.6590761 21.8830468,27.7648159 21.8392475,27.8733906 C21.8224016,27.9153463 21.8055557,27.9570186 21.7887098,27.9989743 C21.1544617,28.4049244 20.5303212,28.8383725 19.9126382,29.2865618 C19.8264434,29.349212 19.7391255,29.4095942 19.6534921,29.4730948 C19.0680972,29.904842 18.492529,30.3570001 17.9242607,30.8244664 C17.8711961,30.8678395 17.8156046,30.9066769 17.76254,30.9506171 C17.7021756,31.0007939 17.644338,31.0557899 17.5839735,31.1065337 C17.1010578,31.5119168 16.6223535,31.925521 16.1529144,32.3552838 C16.1489837,32.3589691 16.145053,32.3626544 16.1411223,32.3663397 C15.6747717,32.7938346 15.2179671,33.2363543 14.7659355,33.6862445 C14.7092209,33.7429414 14.649418,33.7956696 14.5927035,33.85265 C14.5163354,33.9294744 14.4433365,34.0102675 14.3672492,34.0873753 C14.1339335,34.3255025 13.9028639,34.566748 13.6734789,34.8105448 C13.5325349,34.9599413 13.3915909,35.1093377 13.2526122,35.2607185 C13.0094698,35.5257768 12.770258,35.7953707 12.5324501,36.0663821 C12.4412015,36.1701375 12.3471452,36.2699241 12.2567389,36.37453 C12.2390507,36.3949409 12.2230471,36.4173362 12.2053589,36.4380305 C11.5702685,37.1756577 10.9545509,37.9353968 10.3584869,38.7141292 C10.3385525,38.7399264 10.3169336,38.7637391 10.2972801,38.7895362 C10.2880149,38.801726 10.2798727,38.8144828 10.2706074,38.8266727 C9.72395802,39.5450229 9.19668139,40.2812327 8.68568914,41.0301993 C8.65677034,41.0724385 8.62476314,41.1121264 8.59640587,41.1543656 C8.58236763,41.17506 8.57001397,41.1966048 8.55597572,41.2172992 C8.08709821,41.9107028 7.63703195,42.6179972 7.20044242,43.3340795 C7.1636622,43.3947452 7.12238975,43.4525761 7.08560954,43.5135253 C7.06258681,43.5517958 7.04237173,43.5920506 7.01906824,43.630321 C6.60409761,44.3214568 6.2065344,45.0227979 5.82329021,45.7320767 C5.78931765,45.7950103 5.75085285,45.855676 5.71716105,45.9186096 C5.68739996,45.9741726 5.66213111,46.03172 5.63265079,46.087283 C5.2541796,46.800247 4.89255431,47.5208652 4.54805569,48.2488539 C4.52250608,48.3024325 4.49302575,48.3543102 4.46803767,48.4081723 C4.43855735,48.4713894 4.41385003,48.5365909 4.38465047,48.599808 C4.0317289,49.3598305 3.69649552,50.1263731 3.38231951,50.8994359 C3.36435055,50.943943 3.34273165,50.9870327 3.32476269,51.0315398 C3.2621521,51.1871729 3.20515681,51.3442234 3.14395005,51.5004235 C3.0512976,51.7374167 2.9583644,51.9744099 2.8693619,52.2122536 C2.78372858,52.4410257 2.70202597,52.6709318 2.61976184,52.9005544 C2.53356699,53.1415164 2.44765291,53.3824784 2.36538877,53.6242909 C2.33899686,53.7025327 2.30923577,53.7802075 2.28312463,53.8584493 C2.24072912,53.9851669 2.20422967,54.1130185 2.16295722,54.2400197 C2.06216259,54.550152 1.96361409,54.8608512 1.86927706,55.1724009 C1.80694723,55.3784943 1.746302,55.5848711 1.68677982,55.7915315 C1.59777732,56.1005298 1.51270554,56.4098116 1.4304414,56.7193769 C1.39731113,56.8441102 1.35912709,56.96856 1.32711989,57.0932933 C1.30971246,57.1607626 1.29679727,57.2287989 1.27995137,57.2965518 C1.1314267,57.885066 0.991324976,58.4744308 0.868069152,59.0643624 C0.865261502,59.0774027 0.863296147,59.090443 0.860488498,59.1031998 C0.740601853,59.6800912 0.636438047,60.2569826 0.54069719,60.8341575 C0.528624296,60.9064461 0.512339928,60.9784512 0.500547799,61.0507398 C0.481175015,61.1706538 0.468540591,61.2902843 0.450290868,61.4101984 C0.402560822,61.7257169 0.358199956,62.0409519 0.318050564,62.3561868 C0.291658657,62.5622802 0.266389809,62.7680901 0.243086316,62.9739 C0.207429164,63.2936708 0.177106547,63.6128746 0.149030049,63.9320783 C0.131903385,64.1288167 0.113653662,64.3258386 0.0993346482,64.5222935 C0.0746273304,64.8695623 0.0572199019,65.2159806 0.0417778282,65.5621154 C0.0347587038,65.727954 0.0238088698,65.894076 0.0187551002,66.0596311 C0.00303226156,66.56962 -0.00398686284,67.0787586 0.00218996663,67.5859127 C0.0414970632,70.9148736 0.549962434,73.9181106 1.45571025,76.5457304 C1.7575326,77.4216981 2.10371581,78.2557101 2.49117148,79.046349 C2.68489931,79.4418101 2.88901545,79.8259319 3.10295836,80.1992813 C3.53112495,80.94598 3.99972169,81.6478881 4.50537941,82.3038717 C5.0113179,82.9592884 5.55431736,83.569064 6.13241245,84.1300802 C6.99941469,84.9723133 7.94475037,85.7056882 8.95943499,86.3245353 L32.8000314,100.869852 C27.388848,97.5683893 23.9480732,91.0085532 23.8425056,82.1306626 C23.8366095,81.6237919 23.8436286,81.1146534 23.8593515,80.6043809 C23.8644053,80.4391093 23.8753551,80.2727038 23.882655,80.1071487 C23.8978163,79.7610139 23.914943,79.4143121 23.939931,79.0673268 C23.9539693,78.8708719 23.9724998,78.6741336 23.9896264,78.4773952 C24.0174222,78.1579079 24.0480256,77.8384206 24.0836827,77.5186499 C24.1067054,77.31284 24.1319743,77.1070301 24.1583662,76.9012202 C24.1987963,76.5859852 24.2431572,76.2707502 24.2908873,75.9552317 C24.3200868,75.7633126 24.3492864,75.5713934 24.3810128,75.3791908 C24.4770344,74.8020159 24.5809175,74.2248411 24.7013656,73.6482332 C24.7038925,73.6351929 24.7058579,73.6221526 24.7086655,73.6093958 C24.8319214,73.0191806 24.9720231,72.4300994 25.1205478,71.8415851 C25.1688393,71.649099 25.2199386,71.4568964 25.2710378,71.2646938 C25.3533019,70.954845 25.4383737,70.6452797 25.5273762,70.3359979 C25.5868984,70.129621 25.6475436,69.9232441 25.7098734,69.7168673 C25.8039297,69.4070185 25.9019167,69.0971697 26.0024305,68.7881714 C26.0698141,68.580944 26.1363554,68.3737167 26.2068274,68.1670564 C26.2885301,67.9263779 26.3741634,67.6865498 26.4597967,67.4467217 C26.5420608,67.2168156 26.6240442,66.9869095 26.7096775,66.7578539 C26.7989608,66.5194433 26.891894,66.2821666 26.9848272,66.0448899 C27.0634414,65.8444662 27.1417748,65.644326 27.2229159,65.4447527 C27.5370919,64.6714064 27.8723253,63.9042968 28.2252469,63.1442743 C28.2794345,63.0274786 28.3333414,62.9103994 28.3883713,62.7941707 C28.7328699,62.066182 29.0944952,61.3455639 29.4726856,60.6328833 C29.5358578,60.5138197 29.5998722,60.3953231 29.6641674,60.276543 C30.0474116,59.5675478 30.4452555,58.8659231 30.8599454,58.1750709 C30.9194676,58.0758513 30.9806743,57.9783325 31.040758,57.8796798 C31.4770668,57.163314 31.9274138,56.4563031 32.3962913,55.7628995 C32.4392484,55.699399 32.48389,55.6373158 32.5271278,55.5740987 C33.0375585,54.8256991 33.5642736,54.0900563 34.1106423,53.372273 C34.1398418,53.3337191 34.170726,53.2962991 34.2002063,53.2574617 C34.7959896,52.4792962 35.4114264,51.7204076 36.0456745,50.9827804 C36.153769,50.8577636 36.2638289,50.7352983 36.3727657,50.6111319 C36.6108544,50.3401206 36.8500662,50.0708101 37.0932086,49.8060354 C37.232468,49.6540876 37.3734121,49.5049746 37.5143561,49.3550112 C37.7434603,49.1117813 37.9739683,48.8711028 38.2070033,48.6335426 C38.3398051,48.4980369 38.4734492,48.3639487 38.6076549,48.2301439 C39.0582827,47.7816711 39.5136835,47.3402854 39.9786303,46.9142079 C39.9839648,46.9093886 39.9887378,46.9045694 39.9937916,46.8997502 C40.4626691,46.4702708 40.9410926,46.0572336 41.4237276,45.652134 C41.5371567,45.5568831 41.651428,45.4627662 41.7654186,45.3686493 C42.3331254,44.9017499 42.9089743,44.4498753 43.4938078,44.0181281 C43.5797219,43.9546275 43.666759,43.8942453 43.7532346,43.8313117 C44.3709176,43.3834059 44.9947773,42.9499577 45.6293062,42.5440076 C45.6896706,42.3931938 45.7587388,42.2454982 45.8207879,42.0952514 C46.1004298,41.4148881 46.3943907,40.7390605 46.7040745,40.0686192 C46.8290149,39.7981748 46.9612552,39.5305652 47.0909686,39.2618217 C47.3377611,38.7506988 47.5912918,38.2426942 47.8549301,37.7392253 C48.0026125,37.4574415 48.1519795,37.1765082 48.3047156,36.8972758 C48.5753731,36.4017445 48.856138,35.9115994 49.1425183,35.4251397 C49.2927276,35.1694365 49.44041,34.9123158 49.5948307,34.6594475 C49.9674058,34.0499554 50.3537384,33.4492513 50.749617,32.8559178 C50.8321619,32.7326019 50.9093723,32.6050338 50.9930403,32.4822849 C51.4894328,31.7523118 52.0057595,31.0379304 52.5361246,30.3368727 C52.6739802,30.1543085 52.8185741,29.9774141 52.9586759,29.7971178 C53.4020038,29.2267466 53.8554392,28.6668643 54.3198245,28.1188883 C54.5514556,27.8456091 54.7819636,27.5714794 55.0186485,27.3041533 C55.1643655,27.1397321 55.3103633,26.975311 55.4574842,26.8131578 C55.8199517,26.4142948 56.1883154,26.0236529 56.5617328,25.6395311 C56.664212,25.5337913 56.7644451,25.4249332 56.8677666,25.3206108 C57.1957001,24.9892172 57.5328989,24.6719978 57.8689745,24.3525105 C58.0646677,24.1659776 58.2555879,23.9729245 58.4540887,23.7909273 C58.8558634,23.4215467 59.2674649,23.0683248 59.6796279,22.7165203 C59.8157989,22.6002915 59.9483199,22.4764087 60.085614,22.3621644 C60.5848141,21.9468593 61.0929987,21.5491302 61.6056756,21.1610397 C61.7160162,21.0776952 61.8263569,20.9940672 61.937259,20.9121401 C62.4451629,20.5356724 62.958682,20.1708276 63.4786587,19.8227084 C63.5595191,19.7685628 63.6417832,19.7172521 63.7229243,19.6636735 C64.2035939,19.347588 64.6890366,19.0439759 65.1786907,18.7531206 C65.2696585,18.6992585 65.3597841,18.642845 65.4507519,18.5898334 C65.9830823,18.2802681 66.5207473,17.9877119 67.0623429,17.7096134 C67.1797027,17.6495146 67.2973432,17.5914002 67.4149837,17.5330024 C67.9739868,17.2540534 68.5360783,16.9867274 69.1043466,16.7429305 C69.5448668,16.5541297 69.9831409,16.3786527 70.4191689,16.2153655 C70.5738704,16.1575346 70.7263258,16.1093422 70.8804658,16.0546296 C71.1606692,15.9551265 71.441715,15.8527885 71.7196723,15.7637743 C71.8940274,15.7079279 72.0661363,15.6625703 72.239649,15.6109761 C72.4948644,15.5350022 72.7506413,15.4550595 73.0036105,15.3878736 C73.1861078,15.3396812 73.3657974,15.3014108 73.5471715,15.2574707 C73.785541,15.1999233 74.0247528,15.1384071 74.2608761,15.0887973 C74.7701838,14.9813565 75.2733146,14.8960277 75.772234,14.8245895 C75.7747609,14.824306 75.777007,14.8240225 75.7792531,14.8237391 L95.0607878,26.5872205 C97.2771465,24.8270639 99.6487683,23.3727874 102.114446,22.3159564 C102.489548,22.155504 102.862123,22.0061076 103.233014,21.8669166 C103.358797,21.8198581 103.482895,21.7810207 103.608116,21.7362301" id="Fill-1" fill="#59D4FF" mask="url(#mask-2)"></path>
                    </g>
                    <g id="编组" transform="translate(24.000000, 15.000000)">
                        <mask id="mask-4" fill="white">
                            <use xlink:href="#path-3"></use>
                        </mask>
                        <g id="Clip-4"></g>
                        <path d="M45.4093752,2.18762939 C35.2243214,6.5086262 26.4301718,16.5392204 21.8872265,27.77623 L21.8872265,27.77623 C9.29425406,35.7518978 -0.121357405,52.1713482 0.05644427,67.0371629 L0.05644427,67.0371629 C0.257596481,83.8114249 12.5906183,92.2422748 27.5968546,85.876754 L27.5968546,85.876754 C29.6024687,85.0257125 31.5481592,83.9542492 33.4176088,82.6977891 L33.4176088,82.6977891 C38.3499173,82.5063259 43.8733038,81.2310288 49.7024979,78.7580319 L49.7024979,78.7580319 C59.0941962,74.7744153 67.6323339,68.3776869 74.1173123,61.068345 L74.1173123,61.068345 C75.7254047,60.7793227 77.3942647,60.2825304 79.1075752,59.5557572 L79.1075752,59.5557572 C91.9199863,54.1205623 102.164964,38.1127157 101.993351,23.7954249 L101.993351,23.7954249 C101.821739,9.47813419 91.2988058,2.2795655 78.4863946,7.71476038 L78.4863946,7.71476038 C76.0157391,8.76288818 73.6390483,10.2051885 71.4184967,11.9508498 L71.4184967,11.9508498 C68.7208064,4.43373802 62.6845521,0.0657891374 55.069464,0.0657891374 L55.069464,0.0657891374 C52.0597768,0.0657891374 48.8036429,0.747859425 45.4093752,2.18762939" id="Fill-3" fill="url(#linearGradient-5)" mask="url(#mask-4)"></path>
                    </g>
                </g>
                <path d="M59.16,58.7782909 C61.176,57.6543586 62.856,57.2457485 64.152,57.5792206 C65.4,57.8914531 66.144,58.8686686 66.408,60.449487 L63.672,61.9748235 C63.384,61.0073853 62.856,60.4857485 62.064,60.3992933 C61.296,60.2994579 60.312,60.6080439 59.112,61.2770511 C57.312,62.280562 55.968,63.6298502 55.056,65.3862957 C54.216,66.9586008 53.808,68.7220633 53.808,70.6900633 C53.808,72.7060633 54.216,74.0386008 55.032,74.6636758 C55.92,75.3206105 57.312,75.144562 59.184,74.1009107 C60.408,73.4185233 61.416,72.5445572 62.184,71.5403925 C63,70.4374676 63.576,69.1323441 63.912,67.6490221 L66.648,66.1236855 C66.264,68.3537678 65.376,70.4088332 63.96,72.3262618 C62.64,74.1181698 61.056,75.5292594 59.208,76.5595306 C56.352,78.1517679 54.216,78.4306008 52.824,77.4306492 C51.6,76.5770366 51,74.8475403 51,72.2555403 C51,69.7115403 51.624,67.2756565 52.896,64.9825088 C54.336,62.3557001 56.424,60.3036274 59.16,58.7782909 Z M70.288,52.9103635 L73.096,51.3448865 L81.568,58.9816952 L81.664,58.9281746 L81.664,46.5681746 L84.496,44.9893174 L84.496,62.1253174 L81.76,63.650654 L73.192,55.8993659 L73.096,55.9528865 L73.096,68.4808865 L70.288,70.0463635 L70.288,52.9103635 Z M94.64,38.997976 C96.296,38.074746 97.664,37.7920777 98.744,38.1499712 C99.8,38.5212448 100.328,39.4508816 100.328,40.9868816 C100.328,42.4748816 99.752,44.1400051 98.648,45.9794918 C97.976,47.0741358 96.776,48.6551431 95.096,50.7197533 C93.344,52.8485039 92.288,54.4452303 91.904,55.5233126 L100.352,50.8135014 L100.352,53.2855014 L88.4,59.9488138 C88.4,58.1968138 88.952,56.3770705 90.104,54.4388235 C90.728,53.3709397 92.048,51.5790317 94.04,49.1004797 C95.144,47.716993 95.912,46.6408283 96.392,45.8692254 C97.136,44.6144409 97.52,43.4883586 97.52,42.5283586 C97.52,41.5923586 97.256,41.0435402 96.776,40.8551431 C96.272,40.6801261 95.528,40.8789106 94.544,41.4274966 C93.488,42.016223 92.696,42.8177678 92.168,43.832131 C91.64,44.7984942 91.352,45.9910559 91.304,47.3618162 L88.496,48.9272932 C88.52,46.9939131 89.072,45.1501697 90.176,43.3586831 C91.304,41.4818162 92.792,40.0282472 94.64,38.997976 Z" id="CN2" fill="#0D2135" fill-rule="nonzero"></path>
            </g>
        </g>
    </g>
</svg>