<?xml version="1.0" standalone="no"?><!DOCTYPE svg PUBLIC "-//W3C//DTD SVG 1.1//EN" "http://www.w3.org/Graphics/SVG/1.1/DTD/svg11.dtd"><svg t="1566459571053" class="icon" viewBox="0 0 1024 1024" version="1.1" xmlns="http://www.w3.org/2000/svg" p-id="2281" width="48" height="48" xmlns:xlink="http://www.w3.org/1999/xlink"><defs><style type="text/css"></style></defs><path d="M935.747 756.083l-46.122-47.468c-7.452-7.67-17.058-14.645-27.869-20.569V229.722c0-35.29-28.71-64-64-64H221.665c-35.29 0-64 28.71-64 64v460.93c-8.947 5.328-16.907 11.393-23.291 17.963l-46.122 47.468c-30.103 30.981-23.331 58.037-19.022 68.231 4.316 10.212 19.091 33.964 62.959 33.964h759.623c43.867 0 58.643-23.752 62.958-33.964 4.309-10.194 11.081-37.25-19.023-68.231z m-714.082-87.877V229.779a0.511 0.511 0 0 1 0.057-0.057H797.7c0.02 0.017 0.04 0.038 0.057 0.057v438.427h-6.284a118.994 118.994 0 0 0-3.719-0.063H236.247c-1.232 0-2.473 0.024-3.719 0.063h-10.863z m-81.289 126.072l39.899-41.063c10.251-10.551 35.106-20.193 53.508-21.009h556.432c18.401 0.816 43.257 10.458 53.509 21.009l39.899 41.063H140.376z" p-id="2282" fill="#1296db"></path></svg>