<?xml version="1.0" encoding="UTF-8"?>
<svg width="554px" height="335px" viewBox="0 0 554 335" version="1.1" xmlns="http://www.w3.org/2000/svg" xmlns:xlink="http://www.w3.org/1999/xlink">
    <!-- Generator: Sketch 55 (78076) - https://sketchapp.com -->
    <title>dongsi</title>
    <desc>Created with Sketch.</desc>
    <defs>
        <path d="M200.124664,2.82646148 L483.220247,149.132155 C489.10788,152.174923 491.414098,159.414443 488.37133,165.302076 C487.218294,167.533154 485.394326,169.346246 483.156392,170.485918 L314.830319,256.206298 C311.386436,257.960101 307.308668,257.947907 303.875336,256.173539 L20.7797529,109.867845 C14.8921202,106.825077 12.5859017,99.5855566 15.6286697,93.6979239 C16.7817057,91.4668459 18.6056738,89.6537539 20.8436078,88.5140817 L189.169681,2.79370241 C192.613564,1.03989864 196.691332,1.05209253 200.124664,2.82646148 Z" id="path-1"></path>
        <filter x="-9.1%" y="-22.6%" width="118.1%" height="145.2%" filterUnits="objectBoundingBox" id="filter-2">
            <feMorphology radius="8" operator="dilate" in="SourceAlpha" result="shadowSpreadOuter1"></feMorphology>
            <feOffset dx="0" dy="0" in="shadowSpreadOuter1" result="shadowOffsetOuter1"></feOffset>
            <feGaussianBlur stdDeviation="12" in="shadowOffsetOuter1" result="shadowBlurOuter1"></feGaussianBlur>
            <feColorMatrix values="0 0 0 0 0.442407183   0 0 0 0 0.469116792   0 0 0 0 0.996631567  0 0 0 1 0" type="matrix" in="shadowBlurOuter1"></feColorMatrix>
        </filter>
        <polygon id="path-3" points="3.69047619e-05 0.0383114754 30.9659369 0.0383114754 30.9659369 18.9236262 3.69047619e-05 18.9236262"></polygon>
        <linearGradient x1="113.184754%" y1="50%" x2="22.85977%" y2="75.1757476%" id="linearGradient-5">
            <stop stop-color="#FFFFFF" offset="0%"></stop>
            <stop stop-color="#83CCFF" offset="100%"></stop>
        </linearGradient>
        <linearGradient x1="113.184754%" y1="50%" x2="22.85977%" y2="72.1015317%" id="linearGradient-6">
            <stop stop-color="#FFFFFF" offset="0%"></stop>
            <stop stop-color="#83CCFF" offset="100%"></stop>
        </linearGradient>
        <linearGradient x1="113.184754%" y1="50%" x2="22.85977%" y2="70.4749971%" id="linearGradient-7">
            <stop stop-color="#FFFFFF" offset="0%"></stop>
            <stop stop-color="#83CCFF" offset="100%"></stop>
        </linearGradient>
        <linearGradient x1="113.184754%" y1="50%" x2="22.85977%" y2="72.4376719%" id="linearGradient-8">
            <stop stop-color="#FFFFFF" offset="0%"></stop>
            <stop stop-color="#83CCFF" offset="100%"></stop>
        </linearGradient>
        <linearGradient x1="113.184754%" y1="50%" x2="22.85977%" y2="75.4262484%" id="linearGradient-9">
            <stop stop-color="#FFFFFF" offset="0%"></stop>
            <stop stop-color="#83CCFF" offset="100%"></stop>
        </linearGradient>
        <linearGradient x1="113.184754%" y1="50%" x2="22.85977%" y2="70.1379659%" id="linearGradient-10">
            <stop stop-color="#FFFFFF" offset="0%"></stop>
            <stop stop-color="#83CCFF" offset="100%"></stop>
        </linearGradient>
    </defs>
    <g id="Page-1" stroke="none" stroke-width="1" fill="none" fill-rule="evenodd">
        <g id="拓扑" transform="translate(-324.000000, -638.000000)">
            <g id="dongsi" transform="translate(349.000000, 676.000000)">
                <g id="多边形备份-15" opacity="0.200000003">
                    <use fill="black" fill-opacity="1" filter="url(#filter-2)" xlink:href="#path-1"></use>
                    <use fill="#5860FE" fill-rule="evenodd" xlink:href="#path-1"></use>
                </g>
                <path d="M200.124664,2.82646148 L483.220247,149.132155 C489.10788,152.174923 491.414098,159.414443 488.37133,165.302076 C487.218294,167.533154 485.394326,169.346246 483.156392,170.485918 L314.830319,256.206298 C311.386436,257.960101 307.308668,257.947907 303.875336,256.173539 L20.7797529,109.867845 C14.8921202,106.825077 12.5859017,99.5855566 15.6286697,93.6979239 C16.7817057,91.4668459 18.6056738,89.6537539 20.8436078,88.5140817 L189.169681,2.79370241 C192.613564,1.03989864 196.691332,1.05209253 200.124664,2.82646148 Z" id="多边形备份-13" stroke="#5860FE" stroke-width="2" stroke-dasharray="8"></path>
                <g id="编组" transform="translate(175.500000, 167.000000) rotate(-3.000000) translate(-175.500000, -167.000000) translate(113.000000, 131.000000)">
                    <g>
                        <mask id="mask-4" fill="white">
                            <use xlink:href="#path-3"></use>
                        </mask>
                        <g id="Clip-2"></g>
                        <path d="M18.0700845,18.9117123 L15.0714988,18.9236262 C15.5026202,17.4672451 15.6397583,15.6885648 15.443794,13.5875074 L18.1484702,13.6114131 C18.3836274,15.5452861 18.3444345,17.3121303 18.0700845,18.9117123 L18.0700845,18.9117123 Z M19.0890988,2.96300328 C20.1474536,2.70042951 21.2253679,2.42586393 22.3229155,2.11547869 L23.8908512,3.64349918 C23.0285345,3.88224508 22.1465107,4.10899918 21.3233869,4.32391721 L30.9659369,10.1972533 L28.9669536,11.4148885 L18.4031869,4.98050738 C16.0121274,5.45799918 13.7386464,5.7922123 11.5631845,5.97131066 L15.855356,8.58567951 L18.4620131,6.99793361 L20.5198226,8.25138852 L17.9132393,9.83913443 L23.930044,13.5039541 L22.029006,14.6619418 L16.0121274,10.9970443 L10.2305536,14.5186631 C8.87821548,15.3423598 7.467125,15.3184541 6.03640119,14.4470238 L3.99815119,13.2054828 L5.54645357,11.713282 C6.09522738,12.1430402 6.64392738,12.5489705 7.19270119,12.8831836 C7.72191548,13.2055607 8.23149643,13.2293885 8.68225119,12.954823 L13.9543179,9.74358934 L7.50624405,5.81611803 L8.87821548,4.40747049 C11.0732369,4.35973689 13.5034893,4.09708525 16.1493393,3.60760164 L12.2883631,1.2559623 L14.2874202,0.0382491803 L19.0890988,2.96300328 Z M9.15256548,9.75550328 C6.1736131,10.0419828 3.13576071,10.0300689 3.69047619e-05,9.71968361 L0.411525,7.86936393 C3.37099167,8.26330246 6.21280595,8.34685574 8.99579405,8.13201557 L9.15256548,9.75550328 Z" id="Fill-1" fill="url(#linearGradient-5)" mask="url(#mask-4)"></path>
                    </g>
                    <path d="M37.1367799,29.1009566 L49.8921041,21.8122351 L46.5851338,19.9225666 L39.3550669,24.0540058 C39.0264662,24.241809 39.0880402,24.46483 39.5604424,24.7347826 L41.6965792,25.9554647 L39.7248201,27.0821304 L36.9519034,25.4977089 C35.5140431,24.6760607 35.472968,23.9014206 36.7670268,23.1619984 L44.510571,18.7371024 L42.1279063,17.3756254 L38.0199331,19.7230497 C35.0417182,21.3779069 31.734748,21.9296025 28.099177,21.401411 L27.8937241,19.6173195 C30.9336677,20.1807289 33.6243569,19.816913 35.9454476,18.5375855 L40.0534208,16.1901612 L36.8286007,14.3474243 L24.0733539,21.6361458 L37.1367799,29.1009566 Z M36.4179272,32 L34.2407153,30.7558904 L35.2265948,30.192481 L22.1631688,22.7276701 L21.1772119,23.2910795 L19,22.0468934 L36.5821502,12 L54,21.9531066 L36.4179272,32 Z" id="Fill-3" fill="url(#linearGradient-6)"></path>
                    <path d="M49.3448392,29.413627 C48.2931163,29.4252185 47.2826329,29.7156117 46.3340475,30.2498807 C45.406043,30.7725582 44.9317504,31.3416017 44.9316727,31.9455711 C44.9317504,32.5495405 45.344145,33.0838095 46.1897482,33.5599695 C47.055777,34.0477968 48.0250209,34.2684896 49.1386418,34.2453066 C50.2522628,34.2220479 51.2627462,33.9549134 52.1700921,33.4439031 C53.0775156,32.9328171 53.5311498,32.3753652 53.5724669,31.7946545 C53.5930478,31.1790178 53.1599946,30.6331573 52.2732296,30.1337386 C51.365806,29.6227283 50.3965621,29.3787768 49.3448392,29.413627 M60.4602343,31.1442434 L58.1092741,29.8201624 C59.1816556,28.8910253 58.9960391,28.0199214 57.593742,27.2301094 C56.6038395,26.6725817 55.3459193,26.4984063 53.7992451,26.7190991 C52.314469,26.9048659 50.9120942,27.3926932 49.5510365,28.1592465 L49.3654977,28.2637971 L49.4685576,28.3218303 C50.4996995,28.2056882 51.4482849,28.2521299 52.3557085,28.4379725 C53.2218149,28.6006321 54.0054425,28.9026168 54.7478305,29.3207436 C56.1914448,30.1337386 56.8925934,31.0396169 56.830773,32.0501217 C56.7687973,33.0606265 56.0058284,33.9781721 54.5622917,34.7911671 C53.0775156,35.6274208 51.3453028,36.0222889 49.4067372,35.9990302 C47.4682493,35.9758472 45.7360364,35.5577203 44.2718412,34.7330581 C42.4570718,33.7110376 41.7353423,32.561132 42.0858389,31.2951599 C42.4158323,30.0407794 43.714992,28.7980661 45.9628147,27.5320941 C48.3755952,26.1731629 50.8090344,25.3601679 53.3042939,25.0930334 C55.7789725,24.8143075 57.8824182,25.1627339 59.5940502,26.1267212 C62.4812011,27.7527869 62.7698774,29.4252185 60.4602343,31.1442434" id="Fill-5" fill="url(#linearGradient-7)"></path>
                    <path d="M77.7652418,43.4927164 L75.9910371,44.536645 L65.1290259,38.1452778 L66.9031564,37.1013492 L77.7652418,43.4927164 Z M75.8530979,46.1258044 L74.0000495,47.2161904 L66.5877818,42.8547222 C64.0448144,43.1678932 61.9551609,43.3303426 60.3584657,43.3419191 C62.6649021,44.4902633 65.069856,45.6038023 67.514306,46.6709596 C67.6128976,46.1258044 67.6917413,45.5689971 67.7705849,45.0122654 L70.1953611,45.3486651 C70.0967694,47.2394191 69.8602385,48.7936976 69.465946,50 L66.6666997,49.7216342 C66.8440607,49.2692424 67.001748,48.8052741 67.1397615,48.3297294 C63.6505219,46.763723 59.9641732,44.9890368 56.1003892,42.9938673 L57.362036,41.7179545 C57.5985669,41.7875649 57.795676,41.8339466 57.9533633,41.8571753 C59.1559145,42.0311256 61.3243375,41.9383622 64.3996108,41.5671573 L60.4766569,39.2588168 L62.3297053,38.1685065 L75.8530979,46.1258044 Z M70.2150349,33.2966883 L68.5196738,34.2942352 L79.4014331,40.6972546 L81.0967199,39.699632 L70.2150349,33.2966883 Z M65.306387,36.1849892 C61.1272283,38.6208982 56.7312126,40.2564394 52.1576873,41.0916125 L52,39.3980375 C55.6666749,38.7020851 59.4318673,37.2289178 63.2759033,34.9901876 L70.0572733,31 L85,39.7924711 L79.5788684,42.9823664 L66.6666254,35.3846212 L65.306387,36.1849892 Z" id="Fill-7" fill="url(#linearGradient-8)"></path>
                    <path d="M84.1818709,52.5997421 C85.627557,52.0849189 87.5276305,51.1724164 89.8614021,49.8504059 L97.7301129,45.3929035 L105,49.5111079 L89.3244907,58.3910076 C89.1386757,58.4963228 89.097297,58.5898854 89.241889,58.6717718 L89.8614021,59.0228223 C90.0266834,59.1163849 90.1918869,59.1631662 90.3571681,59.1631662 C90.5223716,59.1631662 90.6875751,59.1163849 90.8734679,59.0579274 C91.2452536,58.9408596 92.5463478,58.2505874 94.7355274,57.0104632 L96.0986118,58.4845702 C94.529023,59.3737965 93.2691519,60.0172874 92.4018336,60.415043 C91.5343597,60.8127985 90.7908662,61 90.1299744,61 C89.5310729,60.9648949 88.8494918,60.7425884 88.1266098,60.3330803 L87.1972235,59.8066571 C85.6069455,58.9057546 85.5243437,58.0633859 86.8874281,57.2912274 L100.786766,49.417469 L97.8540933,47.7561605 L92.0092808,51.0671013 C89.6755093,52.3891881 87.5069412,53.4070057 85.4830428,54.132383 C83.4796782,54.8694365 81.2078969,55.4076123 78.7089218,55.7234814 L78.5023397,53.8281901 C80.5676944,53.5942073 82.4883795,53.1846992 84.1818709,52.5997421 L84.1818709,52.5997421 Z M89.2211219,44.152703 L93.0212689,42 L95.1692254,43.2167717 L91.3690784,45.3694747 L93.6822384,46.679809 L91.5962721,47.8614756 L89.2831121,46.5511413 L88.519007,46.9840019 C88.5396186,48.0018195 88.4776284,49.0899236 88.3331142,50.2247326 L85.1732474,50.5874594 C85.627557,49.6748806 86.0199542,48.8909695 86.3091381,48.2358787 L76.1478788,53.9919628 L74,52.7751911 L83.3556978,47.4753963 C81.022004,48.0720296 78.6675431,48.5166428 76.2924707,48.8090831 L77.7175453,46.9488968 C80.9394023,46.7616953 84.0372789,46.2001671 87.0319423,45.2758358 L84.3057735,43.7315186 L86.3917398,42.5499283 L89.2211219,44.152703 Z" id="Fill-9" fill="url(#linearGradient-9)"></path>
                    <path d="M109.902315,56.3810837 L108.01266,57.5009243 L119.131995,64.0903296 L121.021724,62.970489 L109.902315,56.3810837 Z M102.980073,61.143328 L104.929433,59.9881176 L110.220616,63.1236559 C110.479212,62.7818753 110.717956,62.4517823 110.896921,62.1335304 L113.462881,63.2297654 C113.164582,63.5952284 112.806502,63.9959843 112.40872,64.4203457 L118.475616,68.0156153 L116.526257,69.1708258 L107.95303,64.0903296 C107.435838,64.349606 106.918646,64.5853538 106.401453,64.7974961 L113.821035,69.1943544 C110.857218,70.8092962 109.047045,71.6933889 108.410518,71.8820026 C107.754139,72.058775 107.077834,72.0351694 106.401528,71.8230272 C105.705296,71.5990437 104.372537,70.9271701 102.443104,69.7837239 L102.244138,69.66585 L103.556971,68.2277576 C103.954828,68.5106396 104.352686,68.7699929 104.790321,69.0293463 C105.765001,69.6069515 106.441306,69.9370446 106.799311,70.0548416 C107.117612,70.1491869 107.415986,70.1609512 107.694434,70.0902115 C107.933104,69.9959431 108.649187,69.6423214 109.84276,69.0529518 L103.974755,65.5755562 C101.249607,66.2002956 98.3653457,66.2356655 95.3020451,65.646219 L95.9783504,63.901639 C99.578695,64.6914634 102.860739,64.3260005 105.844483,62.8407739 L102.980073,61.143328 Z M104.650985,59.4930933 C100.792044,61.7563031 96.6348041,63.2061599 92.159188,63.8308993 L92,62.0863193 C95.5407147,61.591295 99.0615027,60.3064464 102.562364,58.2553019 L109.743202,54 L116.247734,57.8546229 C116.526182,57.5009243 116.745,57.1591438 116.924039,56.840815 L119.529852,57.9606556 C119.231403,58.3497241 118.893325,58.7622443 118.515394,59.1983701 L125,63.0412287 L119.271256,66.4360434 L106.103079,58.6325292 L104.650985,59.4930933 Z" id="Fill-11" fill="url(#linearGradient-10)"></path>
                </g>
            </g>
        </g>
    </g>
</svg>