<?xml version="1.0" encoding="UTF-8"?>
<svg width="796px" height="455px" viewBox="0 0 796 455" version="1.1" xmlns="http://www.w3.org/2000/svg" xmlns:xlink="http://www.w3.org/1999/xlink">
    <!-- Generator: Sketch 55 (78076) - https://sketchapp.com -->
    <title>yangqiao</title>
    <desc>Created with Sketch.</desc>
    <defs>
        <path d="M425.718283,2.75483503 L724.924336,154.368797 C730.8361,157.364411 733.200106,164.585268 730.204492,170.497032 C729.054241,172.767019 727.212132,174.612568 724.944294,175.767051 L331.149754,376.235029 C327.736306,377.972704 323.698401,377.97647 320.281717,376.245165 L21.0756641,224.631203 C15.1639003,221.635589 12.799894,214.414732 15.7955083,208.502968 C16.9457587,206.232981 18.787868,204.387432 21.0557064,203.232949 L414.850246,2.7649714 C418.263694,1.02729594 422.301599,1.02352987 425.718283,2.75483503 Z" id="path-1"></path>
        <filter x="-6.1%" y="-15.4%" width="112.2%" height="130.9%" filterUnits="objectBoundingBox" id="filter-2">
            <feMorphology radius="8" operator="dilate" in="SourceAlpha" result="shadowSpreadOuter1"></feMorphology>
            <feOffset dx="0" dy="0" in="shadowSpreadOuter1" result="shadowOffsetOuter1"></feOffset>
            <feGaussianBlur stdDeviation="12" in="shadowOffsetOuter1" result="shadowBlurOuter1"></feGaussianBlur>
            <feColorMatrix values="0 0 0 0 0.383460366   0 0 0 0 0.832427689   0 0 0 0 1  0 0 0 1 0" type="matrix" in="shadowBlurOuter1"></feColorMatrix>
        </filter>
        <polygon id="path-3" points="0 0.0447034091 34.9890408 0.0447034091 34.9890408 22.2812148 0 22.2812148"></polygon>
        <linearGradient x1="-47.9565319%" y1="50%" x2="61.783915%" y2="99.0227229%" id="linearGradient-5">
            <stop stop-color="#FFFFFF" offset="0%"></stop>
            <stop stop-color="#83CCFF" offset="100%"></stop>
        </linearGradient>
        <linearGradient x1="-47.9565319%" y1="50%" x2="61.783915%" y2="91.3012182%" id="linearGradient-6">
            <stop stop-color="#FFFFFF" offset="0%"></stop>
            <stop stop-color="#83CCFF" offset="100%"></stop>
        </linearGradient>
        <linearGradient x1="-47.9565319%" y1="50%" x2="61.783915%" y2="98.4155159%" id="linearGradient-7">
            <stop stop-color="#FFFFFF" offset="0%"></stop>
            <stop stop-color="#83CCFF" offset="100%"></stop>
        </linearGradient>
        <linearGradient x1="-47.9565319%" y1="50%" x2="61.783915%" y2="85.1915706%" id="linearGradient-8">
            <stop stop-color="#FFFFFF" offset="0%"></stop>
            <stop stop-color="#83CCFF" offset="100%"></stop>
        </linearGradient>
        <linearGradient x1="-47.9565319%" y1="50%" x2="61.783915%" y2="94.9707026%" id="linearGradient-9">
            <stop stop-color="#FFFFFF" offset="0%"></stop>
            <stop stop-color="#83CCFF" offset="100%"></stop>
        </linearGradient>
        <linearGradient x1="-47.9565319%" y1="50%" x2="61.783915%" y2="91.3012182%" id="linearGradient-10">
            <stop stop-color="#FFFFFF" offset="0%"></stop>
            <stop stop-color="#83CCFF" offset="100%"></stop>
        </linearGradient>
        <polygon id="path-11" points="0.0270706422 0.0754651163 37.9347202 0.0754651163 37.9347202 21.9587713 0.0270706422 21.9587713"></polygon>
        <linearGradient x1="-47.9565319%" y1="50%" x2="61.783915%" y2="90.4484542%" id="linearGradient-13">
            <stop stop-color="#FFFFFF" offset="0%"></stop>
            <stop stop-color="#83CCFF" offset="100%"></stop>
        </linearGradient>
    </defs>
    <g id="Page-1" stroke="none" stroke-width="1" fill="none" fill-rule="evenodd">
        <g id="拓扑" transform="translate(-1011.000000, -597.000000)">
            <g id="yangqiao" transform="translate(1036.000000, 635.000000)">
                <g id="多边形备份-16" opacity="0.300000012">
                    <use fill="black" fill-opacity="1" filter="url(#filter-2)" xlink:href="#path-1"></use>
                    <use fill="#3CCAFF" fill-rule="evenodd" xlink:href="#path-1"></use>
                </g>
                <path d="M425.718283,2.75483503 L724.924336,154.368797 C730.8361,157.364411 733.200106,164.585268 730.204492,170.497032 C729.054241,172.767019 727.212132,174.612568 724.944294,175.767051 L331.149754,376.235029 C327.736306,377.972704 323.698401,377.97647 320.281717,376.245165 L21.0756641,224.631203 C15.1639003,221.635589 12.799894,214.414732 15.7955083,208.502968 C16.9457587,206.232981 18.787868,204.387432 21.0557064,203.232949 L414.850246,2.7649714 C418.263694,1.02729594 422.301599,1.02352987 425.718283,2.75483503 Z" id="多边形备份-10" stroke="#3CCAFF" stroke-width="2" stroke-dasharray="8"></path>
                <g id="编组" transform="translate(640.000000, 195.000000) rotate(3.000000) translate(-640.000000, -195.000000) translate(571.000000, 154.000000)">
                    <g transform="translate(0.785758, 58.195358)">
                        <mask id="mask-4" fill="white">
                            <use xlink:href="#path-3"></use>
                        </mask>
                        <g id="Clip-2"></g>
                        <path d="M10.5818255,10.1571324 L8.28144183,8.80695909 L11.823979,6.72784545 C10.2137191,6.43070341 8.69546411,6.21476023 7.20025371,6.09322614 L8.23543936,4.35158977 C9.89170173,4.51363523 11.5939666,4.75661534 13.3652785,5.06714375 L12.7442017,6.18781136 L16.1487314,4.18954432 C15.5506126,3.0824392 14.7915285,1.98889659 13.8943502,0.922302841 L17.0459097,0.0447034091 C17.7360334,0.989763068 18.2191027,1.89439943 18.5871225,2.75843636 L21.9457364,0.78720625 L24.24612,2.13737955 L18.6561696,5.41818352 L21.2786572,6.95735114 L26.1784839,4.0816608 L28.4788676,5.43174602 L23.5790408,8.30743636 L26.316578,9.91415227 L32.6656126,6.18781136 L34.9890408,7.55145909 L28.6399196,11.2778 L33.8848082,14.3560472 L31.4464171,15.7871551 L26.2015285,12.708908 L19.8754517,16.4217744 L17.5521101,15.0580386 L23.8781869,11.3452602 L21.1406498,9.73854432 L16.1948205,12.6413597 L13.8944369,11.2912744 L18.8402661,8.38845909 L16.2177785,6.84929148 L10.5818255,10.1571324 Z M7.45331064,9.15799886 L7.43026609,11.0616807 C5.45198639,10.980746 2.96750619,11.0887176 -4.33168317e-05,11.3722091 L0.0690037129,9.52251307 C2.76045173,9.26605852 5.22188738,9.14452443 7.45331064,9.15799886 L7.45331064,9.15799886 Z M16.5169245,14.8555699 C18.4492017,17.1237659 20.1285087,19.3514506 21.4857983,21.5252375 L18.1271844,22.2812148 C16.8849443,19.9859818 15.3666894,17.7448227 13.618422,15.5845983 L16.5169245,14.8555699 Z M12.4681869,12.8034051 L12.4912314,14.7070869 C10.535823,14.6125898 8.12047649,14.68005 5.22188738,14.9230301 L5.29093441,13.0733341 C7.93637995,12.8439165 10.3287686,12.7628938 12.4681869,12.8034051 L12.4681869,12.8034051 Z" id="Fill-1" fill="url(#linearGradient-5)" mask="url(#mask-4)"></path>
                    </g>
                    <path d="M34.7989009,52.1222348 L31.9996527,51.3391629 C35.946165,49.0942375 38.8141955,46.9407472 40.6955979,44.8786067 L43.770148,45.3484669 C42.8982723,46.4447506 41.6593274,47.5933071 40.0072568,48.7940514 C40.580932,49.3030737 41.1086372,49.812096 41.6134437,50.3080075 L47.8772963,46.7449366 L50.1488394,48.037116 L46.9824355,49.8382325 C49.4146146,50.1774955 51.9614595,50.1123672 54.6459554,49.6293963 L55.7472494,51.4305127 C54.0722802,51.6523746 52.4891647,51.7697758 50.9289478,51.7697758 L61.070444,57.5386099 L58.7301187,58.8699513 L48.0609173,52.8009312 L49.8964361,51.7567501 C48.0608309,51.7045624 46.3170794,51.5218626 44.6650952,51.156378 L43.0818933,52.0569362 C43.2654279,52.3179602 43.4489625,52.6051206 43.6095985,52.8792554 C43.9308704,53.5578666 44.114405,54.2626995 44.2061723,54.9935836 L45.1699018,54.4453992 L47.5332121,55.7896812 C50.6995296,57.5907977 52.2597464,59.8617743 52.3056301,62.6026963 L48.7951421,62.7462339 C48.9556917,60.4100439 47.785529,58.5174924 45.2616691,57.0818605 L44.2061723,56.4814032 C44.1602887,57.0296727 44.0456228,57.5907977 43.8620017,58.1650334 L41.2233895,57.969308 L41.6134437,59.0265146 C40.0991105,58.7654055 38.7683118,58.5566545 37.6670178,58.400006 L48.5198402,64.5734017 L46.2253985,65.8786067 L36.3363056,60.2533954 C37.4375996,61.5585153 38.3324604,62.8506095 38.9749179,64.129678 L35.3266925,63.2552562 C34.684235,61.3235426 33.4452037,59.444187 31.5178312,57.6169341 L28.9939712,59.052566 L26.6765445,57.7343353 L29.2922582,56.2464306 L25.070444,53.8449419 L27.3648857,52.5398221 L31.5866998,54.9413107 L33.8123593,53.675353 L36.1296996,54.9935836 L33.9041266,56.2595414 L34.9366383,56.8468879 C36.8180407,56.8990756 38.7912969,57.0034512 40.8563203,57.186236 C41.2463745,55.8941418 41.2004045,54.6933124 40.6956843,53.5709774 L40.6268156,53.4534911 L37.4833968,55.2415819 L35.2119402,53.9494026 L39.319002,51.6132125 C38.9059628,51.1694888 38.4241413,50.7125691 37.8734511,50.2688454 C36.909808,50.8692176 35.9002813,51.4957262 34.7989009,52.1222348" id="Fill-3" fill="url(#linearGradient-6)"></path>
                    <polygon id="Fill-5" fill="url(#linearGradient-7)" points="50.3331351 41.1300139 66.6580526 51.4404475 63.9830562 53.1300139 47.6580526 42.8194861"></polygon>
                    <path d="M71.074123,46.9262063 L73.8512243,45.4307848 C75.8771065,44.3400001 76.8786461,43.2859135 76.8786461,42.2807574 C76.8331255,41.2757613 75.8087827,40.2338273 73.8056179,39.1552753 C71.7570182,38.0520981 69.799374,37.4882769 67.9783774,37.4882769 C66.1117745,37.4882769 64.1768477,38.0398655 62.1509655,39.1307301 L59.37395,40.6260716 L71.074123,46.9262063 Z M60.3754895,37.6353885 C63.0159431,36.2136028 65.7248063,35.5394478 68.5474281,35.5884584 C71.2106849,35.6252363 73.8511385,36.3361691 76.4461573,37.7334096 C79.0183728,39.1184974 80.3386425,40.5402832 80.4296837,41.9866141 C80.5208107,43.5065009 79.2687791,44.9650646 76.6283255,46.3868503 L70.6871548,49.5859682 L54.4343189,40.8344264 L60.3754895,37.6353885 Z" id="Fill-7" fill="url(#linearGradient-8)"></path>
                    <path d="M83.3774642,24.6588208 C85.4772828,24.5243258 87.4653803,24.8874536 89.3195471,25.7079345 L86.7729281,27.2412478 C85.4549891,26.7704714 84.2040154,26.6090423 82.9754196,26.7570482 C81.7691176,26.8915432 80.629865,27.3084514 79.5129062,27.9809265 C77.8375101,28.9896829 77.1450579,30.0791539 77.4578434,31.289609 C77.7035794,32.37908 78.7534887,33.4685509 80.5851934,34.5713574 C82.4616539,35.7011856 84.2934428,36.3468143 86.0581822,36.4947325 C87.9569364,36.6427384 89.8110191,36.1988961 91.5534647,35.1497824 C92.6927172,34.4638842 93.3404137,33.7241178 93.5191843,32.9709282 C93.675577,32.1504472 93.2958262,31.2761858 92.4022255,30.3615671 L94.9487603,28.8283415 C96.4678479,30.1732916 97.0933347,31.5451758 96.825305,32.9709282 C96.579569,34.3024551 95.596625,35.4860638 93.8766414,36.5216666 C91.2183855,38.1221835 88.3813589,38.8080817 85.4326953,38.5929599 C82.8637826,38.4181076 80.3842132,37.5976267 77.9716932,36.1450279 C75.6037607,34.7193633 74.241066,33.1994732 73.9506583,31.5989563 C73.5932854,29.7698066 74.71016,28.1019983 77.256779,26.568685 C79.1331554,25.4389445 81.1883024,24.7933158 83.3774642,24.6588208" id="Fill-9" fill="url(#linearGradient-9)"></path>
                    <path d="M97.3329951,14.8849205 L99.6862242,16.2196475 L91.895444,20.6386167 L95.9165834,23.4377396 L95.9850723,23.3988559 C95.9850723,22.8286172 96.1906249,22.2973468 96.6247893,21.7919426 C96.9903787,21.3254221 97.5386338,20.8848523 98.2697266,20.4701486 C99.8004871,19.6019421 101.559687,19.1743054 103.52444,19.2001715 C105.489193,19.2261222 107.385543,19.7315264 109.144743,20.7293173 C110.835368,21.6883089 111.566461,22.8287017 111.360908,24.1634287 C111.132383,25.3815045 110.218538,26.4442143 108.596488,27.3642377 C107.111415,28.2065781 105.42079,28.6989647 103.570128,28.8415666 C101.491112,29.0100347 99.6405363,28.6860316 98.018486,27.8955081 L100.645757,26.4053306 C101.651063,26.8459004 102.656283,27.0273015 103.684391,26.936601 C104.552633,26.8588335 105.466392,26.5737987 106.357435,26.0683944 C107.317054,25.5241064 107.842508,24.8891179 107.910997,24.1763618 C107.956685,23.4766234 107.499805,22.8287017 106.494499,22.2584631 C105.397817,21.6364921 104.232732,21.312489 103.067475,21.2736053 C101.879503,21.2217885 100.760019,21.5198409 99.7090252,22.1159457 C99.0008194,22.5176317 98.4981662,22.9323354 98.2469256,23.3599721 C97.9499111,23.8394257 97.9270241,24.3188792 98.1783507,24.8242835 L95.6880578,26.236778 L87.3947103,20.5219655 L97.3329951,14.8849205 Z" id="Fill-11" fill="url(#linearGradient-10)"></path>
                    <g transform="translate(99.896277, 0.850536)">
                        <mask id="mask-12" fill="white">
                            <use xlink:href="#path-11"></use>
                        </mask>
                        <g id="Clip-14"></g>
                        <path d="M24.9517587,4.87304264 L27.0345248,6.04953101 L14.2829972,13.2524845 L12.200144,12.0759961 L24.9517587,4.87304264 Z M30.2050844,6.1411124 L32.3804972,7.36995736 L23.678933,12.2851667 C24.3037541,13.9714922 24.6278,15.3572364 24.6509835,16.4160504 C26.9420523,14.886624 29.163745,13.2917946 31.2927908,11.6707868 C30.2051716,11.6053837 29.0942817,11.5531124 27.9834789,11.5008411 L28.6545798,9.89287984 C32.4268642,9.95828295 35.5279606,10.1151822 37.9347725,10.376624 L37.3793275,12.2328953 C36.4767404,12.1152209 35.5510569,12.0106783 34.6022771,11.9191822 C31.4779972,14.2330194 27.9371991,16.6775775 23.9566991,19.2397248 L21.4109606,18.4030426 C21.5498,18.2462287 21.6424468,18.1155078 21.6887266,18.0108798 C22.0357817,17.2135078 21.8506624,15.7754922 21.1100982,13.7362287 L16.5046899,16.3376008 L14.3292771,15.1088411 L30.2050844,6.1411124 Z M4.60938257,9.87974806 L6.59967615,11.0040504 L19.3743,3.78805039 L17.3840064,2.66383333 L4.60938257,9.87974806 Z M10.3718734,13.1348953 C15.2318642,15.9062132 18.4949835,18.8213837 20.1613183,21.8542287 L16.782456,21.9587713 C15.3938872,19.5272597 12.4548138,17.0304302 7.98824495,14.4813295 L0.0270706422,9.98437597 L17.5691257,0.0754224806 L23.9334284,3.67037597 L8.77508899,12.2328953 L10.3718734,13.1348953 Z" id="Fill-13" fill="url(#linearGradient-13)" mask="url(#mask-12)"></path>
                    </g>
                </g>
            </g>
        </g>
    </g>
</svg>