<?xml version="1.0" encoding="UTF-8"?>
<svg width="890px" height="505px" viewBox="0 0 890 505" version="1.1" xmlns="http://www.w3.org/2000/svg" xmlns:xlink="http://www.w3.org/1999/xlink">
    <!-- Generator: Sketch 55 (78076) - https://sketchapp.com -->
    <title>yizhuang</title>
    <desc>Created with Sketch.</desc>
    <defs>
        <path d="M425.952821,2.78152214 L820.044471,203.810438 C825.948153,206.821947 828.292722,214.049138 825.281212,219.952821 C824.13141,222.206863 822.298513,224.03976 820.044471,225.189562 L425.952821,426.218478 C422.527559,427.965728 418.472441,427.965728 415.047179,426.218478 L20.9555292,225.189562 C15.0518469,222.178053 12.7072778,214.950862 15.7187875,209.047179 C16.8685901,206.793137 18.7014872,204.96024 20.9555292,203.810438 L415.047179,2.78152214 C418.472441,1.03427207 422.527559,1.03427207 425.952821,2.78152214 Z" id="path-1"></path>
        <filter x="-5.4%" y="-13.6%" width="110.8%" height="127.3%" filterUnits="objectBoundingBox" id="filter-2">
            <feMorphology radius="8" operator="dilate" in="SourceAlpha" result="shadowSpreadOuter1"></feMorphology>
            <feOffset dx="0" dy="0" in="shadowSpreadOuter1" result="shadowOffsetOuter1"></feOffset>
            <feGaussianBlur stdDeviation="12" in="shadowOffsetOuter1" result="shadowBlurOuter1"></feGaussianBlur>
            <feComposite in="shadowBlurOuter1" in2="SourceAlpha" operator="out" result="shadowBlurOuter1"></feComposite>
            <feColorMatrix values="0 0 0 0 0.911524138   0 0 0 0 0.318121189   0 0 0 0 1  0 0 0 1 0" type="matrix" in="shadowBlurOuter1"></feColorMatrix>
        </filter>
        <mask id="mask-3" maskContentUnits="userSpaceOnUse" maskUnits="objectBoundingBox" x="0" y="0" width="841" height="429" fill="white">
            <use xlink:href="#path-1"></use>
        </mask>
        <linearGradient x1="-47.9565319%" y1="50%" x2="61.783915%" y2="98.1171159%" id="linearGradient-4">
            <stop stop-color="#FFFFFF" offset="0%"></stop>
            <stop stop-color="#83CCFF" offset="100%"></stop>
        </linearGradient>
        <linearGradient x1="-47.9565319%" y1="50%" x2="61.783915%" y2="93.6950031%" id="linearGradient-5">
            <stop stop-color="#FFFFFF" offset="0%"></stop>
            <stop stop-color="#83CCFF" offset="100%"></stop>
        </linearGradient>
        <linearGradient x1="-47.9565319%" y1="50%" x2="61.783915%" y2="88.4038113%" id="linearGradient-6">
            <stop stop-color="#FFFFFF" offset="0%"></stop>
            <stop stop-color="#83CCFF" offset="100%"></stop>
        </linearGradient>
        <linearGradient x1="-47.9565319%" y1="50%" x2="61.783915%" y2="84.5244469%" id="linearGradient-7">
            <stop stop-color="#FFFFFF" offset="0%"></stop>
            <stop stop-color="#83CCFF" offset="100%"></stop>
        </linearGradient>
        <polygon id="path-8" points="0.0100482759 0.0402352941 27.9734483 0.0402352941 27.9734483 17.9931247 0.0100482759 17.9931247"></polygon>
        <linearGradient x1="-47.9565319%" y1="50%" x2="61.783915%" y2="100.028616%" id="linearGradient-10">
            <stop stop-color="#FFFFFF" offset="0%"></stop>
            <stop stop-color="#83CCFF" offset="100%"></stop>
        </linearGradient>
    </defs>
    <g id="Page-1" stroke="none" stroke-width="1" fill="none" fill-rule="evenodd">
        <g id="拓扑" transform="translate(-88.000000, -103.000000)">
            <g id="yizhuang" transform="translate(113.000000, 141.000000)">
                <g id="多边形备份-4" opacity="0.200000003" stroke-linejoin="round" stroke-dasharray="8,4">
                    <use fill="black" fill-opacity="1" filter="url(#filter-2)" xlink:href="#path-1"></use>
                    <use stroke="#D85AFF" mask="url(#mask-3)" stroke-width="2" fill="#D021FE" fill-rule="evenodd" xlink:href="#path-1"></use>
                </g>
                <path d="M425.952821,2.78152214 L820.044471,203.810438 C825.948153,206.821947 828.292722,214.049138 825.281212,219.952821 C824.13141,222.206863 822.298513,224.03976 820.044471,225.189562 L425.952821,426.218478 C422.527559,427.965728 418.472441,427.965728 415.047179,426.218478 L20.9555292,225.189562 C15.0518469,222.178053 12.7072778,214.950862 15.7187875,209.047179 C16.8685901,206.793137 18.7014872,204.96024 20.9555292,203.810438 L415.047179,2.78152214 C418.472441,1.03427207 422.527559,1.03427207 425.952821,2.78152214 Z" id="多边形备份-5" stroke="#D85AFF" stroke-width="2" stroke-linecap="round" stroke-linejoin="round" stroke-dasharray="8"></path>
                <g id="编组" transform="translate(97.000000, 190.500000) rotate(3.000000) translate(-97.000000, -190.500000) translate(36.000000, 155.000000)">
                    <path d="M27.1455218,59.6206223 L26.1228088,61.1880327 C22.7013004,60.1358236 19.5215343,59.3137608 16.5463248,58.6999662 L17.7550365,57.2421595 C20.8604311,57.8668929 24.0029414,58.667078 27.1455218,59.6206223 L27.1455218,59.6206223 Z M9.25707899,57.9107201 L16.3232103,53.7457111 L18.2198932,54.8636966 L13.2736293,57.7792386 L24.0401271,64.1254525 C25.5092091,64.991414 25.5278369,65.8572325 24.1145687,66.6903058 L22.1063285,67.8739963 L19.8190902,67.0300556 C20.5256894,66.7012447 21.157987,66.3943832 21.7158432,66.0655009 C22.2922572,65.7257511 22.2550715,65.3530416 21.6228438,64.9804036 L11.3397607,58.919102 L8.97815091,60.3111322 L11.5443173,61.823705 C16.3232103,64.7063588 18.3873341,67.6328397 17.7550365,70.6361075 L15.0030114,70.7457111 C15.6352391,68.0932035 13.8501134,65.4845945 9.62900644,62.9526294 L7.06291012,61.4400566 L2.04220469,64.3994258 L0.145521761,63.2814403 L7.15583946,59.1493196 C6.24468374,58.919102 5.33352802,58.732783 4.45955804,58.5902911 L6.2632416,57.1325558 C7.1930252,57.3298138 8.1971803,57.5929196 9.25707899,57.9107201 L9.25707899,57.9107201 Z M8.06699518,63.566424 C10.1496769,65.4955335 11.6186887,67.3259782 12.4741009,69.1015854 L9.61044858,69.4742234 C8.7922222,67.6767384 7.50913903,65.9997244 5.76119906,64.4433244 L8.06699518,63.566424 Z" id="Fill-1" fill="url(#linearGradient-4)"></path>
                    <path d="M33.6669163,50.7167058 L30.1918676,48.6769389 L32.1512465,47.5267966 L35.6262255,49.5666343 L40.3397475,46.7998806 L42.2066812,47.8957395 L37.4931592,50.6624225 L42.114236,53.3749636 L47.7334842,50.0765583 L49.6188652,51.1832456 L36.3287534,58.9843403 L34.4433028,57.877653 L40.1549267,54.5250351 L35.5338499,51.8125648 L30.9127732,54.5250351 L29.0458395,53.4291762 L33.6669163,50.7167058 Z M28.4543433,46.5069485 L35.0531766,42.6335075 L36.9201103,43.7293665 L23.4451081,51.6389571 L27.2529038,53.8740592 C31.1715223,56.2393141 33.7778783,58.4635171 35.0717631,60.5250115 L31.9664257,60.6335075 C30.9312901,58.940956 28.7131621,57.0747261 25.2935945,55.0241308 L19.6188652,51.6931697 L26.3286606,47.7546877 C25.4968626,47.5702516 24.6835815,47.4183006 23.8702307,47.3098046 L25.6632361,45.823346 C26.5319982,46.0078528 27.4746887,46.2356732 28.4543433,46.5069485 L28.4543433,46.5069485 Z" id="Fill-3" fill="url(#linearGradient-5)"></path>
                    <path d="M59.8212157,39.9545241 C60.4345402,40.0919314 60.9735967,40.2293386 61.4939635,40.3561972 L58.5572576,38.6862135 L57.5350034,39.2674881 L59.6353704,40.4618208 L59.8212157,39.9545241 Z M67.0143044,42.4594997 C66.4009098,42.8083609 65.7689658,42.7871948 65.1184022,42.4172364 L62.627795,41.0009011 L62.5162878,41.3814081 C61.791386,41.1805715 61.0107657,40.9691864 60.1557373,40.7578013 C61.3639068,41.4659345 62.2561043,42.0578956 62.8137103,42.5017629 C63.3712462,42.9880314 63.817345,43.5798545 64.1147675,44.2986052 L62.1817662,44.3831317 C61.9401323,43.8229543 61.5869912,43.3684694 61.1780615,43.0091285 C60.7505823,42.6391701 59.9327229,42.0895413 58.6874543,41.3814081 L55.0258466,39.2992027 L58.6316657,37.2487121 L66.0663183,41.476552 C66.233614,41.571696 66.3451912,41.6139593 66.4009098,41.5822446 L66.512417,41.5188153 C66.5309665,41.5082667 66.4566984,41.4448374 66.3079522,41.3179787 C66.1035573,41.2017376 65.4343742,40.8000646 64.3006128,40.1341946 L65.8247543,39.7114244 C67.070023,40.5464162 67.7949247,41.0854965 68.0179391,41.3391448 C68.2038544,41.5927932 68.1480658,41.8147268 67.8135442,42.0050148 L67.0143044,42.4594997 Z M55.6949597,41.2862641 L54.9515085,41.7090343 C55.6577907,42.3431896 56.2153966,42.8928874 56.6243263,43.3368237 C56.9774674,43.3050401 57.349228,43.2839429 57.6837496,43.2627769 C57.2562704,42.5546437 56.6057068,41.8887737 55.6949597,41.2862641 L55.6949597,41.2862641 Z M53.0370568,40.1553607 L53.9292543,40.8529453 L55.6020721,39.9016434 L56.5499882,40.4407237 C57.9625526,41.2651669 58.9476377,42.1846852 59.5052437,43.1782504 C60.1371877,43.1570843 60.7319627,43.1570843 61.2337801,43.1676329 L61.4010759,44.2775081 C60.9178781,44.256342 60.4346102,44.256342 59.9141734,44.256342 C60.0443001,44.8799487 60.0814692,45.514104 59.969962,46.1694254 L57.9997916,45.9368742 C58.1484679,45.3449822 58.1670174,44.8059708 58.0741298,44.2879877 C57.2748899,44.3197713 56.4198615,44.3620345 55.5462835,44.4148463 C55.0072971,43.7912396 54.3567335,43.1465357 53.5946627,42.4806658 L52.9255496,42.8611038 L51.6616614,42.142422 L52.590958,41.6139593 L51.6058728,40.8423278 L53.0370568,40.1553607 Z M53.7619585,37.417834 L47.4796869,40.9902836 L48.0744619,41.3285273 L54.3567335,37.7560088 L53.7619585,37.417834 Z M50.5092805,43.2416108 L49.617083,43.7489764 L50.8810411,44.4677271 L51.7731686,43.9603615 L50.5092805,43.2416108 Z M53.0556763,45.8311817 L54.059381,45.2603868 L52.8883805,44.5945168 L51.9776335,45.112431 C52.3679436,45.3555307 52.7211547,45.5986305 53.0556763,45.8311817 L53.0556763,45.8311817 Z M54.3939025,35.684352 L57.4235662,37.4072164 L47.4424478,43.0831064 L44.4128542,41.360242 L54.3939025,35.684352 Z M55.6578607,48.9386668 L53.5946627,48.9914786 C53.2044225,47.8394091 52.0892107,46.7190543 50.2304775,45.6409627 L47.0707572,43.8441204 L50.6579567,41.8041783 L57.9626226,45.9580403 C58.817581,46.4442399 58.7617924,46.962154 57.8138763,47.5011654 L57.2191013,47.8394091 L55.6206916,47.3109464 C55.843706,47.226351 56.0667204,47.1418245 56.2340162,47.0466805 C56.5499882,46.8670101 56.5128191,46.655625 56.1410585,46.4442399 L55.1745229,45.894611 L53.9664233,46.5816471 C54.8214518,47.3637582 55.3976072,48.1564868 55.6578607,48.9386668 L55.6578607,48.9386668 Z M40.6025703,40.7366352 L39.264344,39.9756213 L44.7102067,36.8787537 C44.2269389,36.7730611 43.7622906,36.6990832 43.3161918,36.6356539 L44.896052,35.398989 C45.3978694,35.5152991 45.9369258,35.6738034 46.5317008,35.8429253 L52.0519016,32.7037945 L53.4273669,33.4859056 L43.5392762,39.1089148 L44.1154317,39.436541 L53.2786207,34.2258224 L54.5797479,34.9656702 L43.6136143,41.2016687 L41.7363317,40.1341256 L40.6769084,40.7366352 L41.2716834,40.7577324 L41.2345143,42.1952338 C39.8404995,42.0789238 38.1491321,42.0683752 36.1231732,42.1846852 L36.1975113,40.789447 C37.758752,40.7049206 39.2457245,40.6837545 40.6025703,40.7366352 L40.6025703,40.7366352 Z M48.7250255,45.1018824 C50.3977733,46.8352954 51.8661263,48.5369938 53.1114649,50.1964289 L50.7695339,50.7037945 C49.5056458,48.9703815 48.0744619,47.2897803 46.5131512,45.6409627 L48.7250255,45.1018824 Z M45.7510805,43.4952591 L45.7510805,44.9115944 C44.2455584,44.7953533 42.3868953,44.7953533 40.1937106,44.9010459 L40.2494292,43.5164252 C42.238219,43.4212812 44.0782626,43.4107326 45.7510805,43.4952591 L45.7510805,43.4952591 Z" id="Fill-5" fill="url(#linearGradient-6)"></path>
                    <path d="M79.6629524,30.0782625 C78.9854208,29.6524916 78.1197057,29.1202085 77.1033728,28.4815521 L73.4521869,30.5465966 C74.7319767,30.4188375 75.9364931,30.354958 77.0093165,30.3656509 L77.0093165,31.5791535 L79.6629524,30.0782625 Z M72.8310749,25.8736011 L68.9352149,28.0770281 C70.3468395,27.8960824 71.6454123,27.7790162 72.7934382,27.7257601 L72.7746552,28.8860761 L75.3718716,27.4170554 C74.5626469,26.9380978 73.7344976,26.4271311 72.8310749,25.8736011 L72.8310749,25.8736011 Z M66.4885454,29.460853 C67.3731852,30.0036901 68.1824099,30.5465966 68.9352149,31.0575633 L72.304161,29.1521482 C71.2878281,29.1734646 70.1020946,29.2905307 68.7470314,29.460853 L68.7846681,28.1622239 L66.4885454,29.460853 Z M72.793509,33.9635262 L76.6516614,31.7813461 C75.560126,31.7600992 74.2614824,31.8346022 72.7746552,31.9729847 L72.812292,30.9085574 L70.553806,32.1858701 C71.3819553,32.8032796 72.1348312,33.3993728 72.793509,33.9635262 L72.793509,33.9635262 Z M63.7784189,29.0775758 L73.0568951,23.829873 C74.6189957,24.7772341 75.9929127,25.6181524 77.2351367,26.3632515 L78.6842563,25.5436495 L80.4911018,26.5655136 L78.9666379,27.4277483 C79.964117,28.0557812 80.8110492,28.5986183 81.5073637,29.0350821 L82.8812808,28.2580432 L84.5751453,29.2160278 L83.0695352,30.067639 C83.483539,30.344404 83.728213,30.5465966 83.8223402,30.6424159 C84.2551978,31.1001265 84.349325,31.5578372 84.1235048,32.0049244 C83.8787598,32.4626351 83.2577187,32.9842253 82.2413859,33.5590022 C81.714472,33.8570835 81.1122138,34.2189749 80.4346821,34.6021826 L78.1008519,33.9422099 C78.9290012,33.516439 79.6818062,33.1332313 80.3217011,32.7713399 C80.7545587,32.5265146 81.074577,32.28162 81.3192511,32.0581111 C81.5262175,31.8132859 81.5262884,31.5365209 81.338034,31.238509 C81.3003973,31.2171927 81.2626897,31.1746295 81.2062701,31.1214429 L72.304161,36.1563297 C71.1184983,35.1450197 69.9139819,34.1657188 68.671758,33.2502974 L67.0156011,34.1870351 L65.2088264,33.165171 L67.0720207,32.1113672 C66.0556878,31.4088313 65.020572,30.7169188 63.9854562,30.0675696 C64.023093,30.3868978 64.0418759,30.7169188 64.0418759,31.0149307 L61.2941127,30.8659248 C61.3505323,29.5779191 60.7859108,28.1089678 59.6190311,26.4696943 L62.009281,25.6074596 L62.5926854,26.4696943 L70.8925363,21.7754519 L72.699311,22.797316 L63.4208348,28.0450883 C63.5525987,28.3963563 63.6842917,28.7476242 63.7784189,29.0775758 L63.7784189,29.0775758 Z M59.8072855,29.4714764 L59.8072855,31.0468705 C58.3957318,30.9936838 56.6454477,31.0681173 54.5751453,31.2597559 L54.612782,29.7056088 C56.5136129,29.5246631 58.245185,29.4395367 59.8072855,29.4714764 L59.8072855,29.4714764 Z M68.3142447,34.2828544 C69.7445104,35.9433748 70.911461,37.5826484 71.8900863,39.2006056 L69.2552332,39.7754519 C68.3142447,38.0936152 67.2037846,36.4436487 65.9239948,34.8682547 L68.3142447,34.2828544 Z M64.1548569,32.2496802 L64.1548569,33.8250743 C62.7433031,33.7718876 60.9741652,33.8357672 58.8474432,34.0167128 L58.8850799,32.4625657 C60.8047646,32.2923129 62.5550487,32.2177405 64.1548569,32.2496802 L64.1548569,32.2496802 Z" id="Fill-7" fill="url(#linearGradient-5)"></path>
                    <path d="M90.7608677,22.4872812 C89.9480168,21.7411337 88.5071614,20.7604549 86.4197264,19.5558832 L79.3815118,15.4945908 L85.8839711,11.7424374 L99.9049533,19.8331071 C100.071225,19.9289917 100.21899,19.950338 100.34832,19.8757302 L100.902442,19.5559527 C101.050277,19.470637 101.12409,19.3853908 101.12409,19.3000751 C101.12416,19.2148289 101.050277,19.1295132 100.957889,19.0336286 C100.773112,18.8417204 99.683235,18.1701807 97.7251298,17.0402863 L100.052719,16.3366924 C101.456633,17.1468788 102.472697,17.7970722 103.100771,18.2447885 C103.728845,18.6925048 104.024376,19.0762517 104.024376,19.4173755 C103.968929,19.7264451 103.618021,20.0782768 102.971441,20.4513158 L102.140154,20.9310168 C100.717735,21.7517721 99.3877035,21.7944647 98.1684967,21.0908708 L85.7361357,13.9169801 L83.113015,15.4306214 L88.3408901,18.4473351 C90.4283252,19.6518373 92.0355214,20.7710933 93.1807757,21.8157415 C94.3446051,22.8496818 95.1943975,24.0222688 95.6931417,25.3120867 L92.700537,25.4186792 C92.331053,24.3526847 91.6844734,23.3613675 90.7608677,22.4872812 L90.7608677,22.4872812 Z M77.4234066,19.8862991 L74.0243764,17.9249415 L75.9455401,16.8163238 L79.3445703,18.777751 L81.4135695,17.5838177 L83.2792863,18.6604506 L81.2103567,19.8543144 L81.8938778,20.2487692 C83.5010045,20.2381308 85.2189555,20.270046 87.010859,20.3447233 L87.5835557,21.975665 C86.1426307,21.7411337 84.9049185,21.5385871 83.8704885,21.389302 L92.9591967,26.6338894 L91.0379633,27.7424374 L82.6697177,22.9136512 C83.6118288,24.1182229 84.3138554,25.3333635 84.7756582,26.5592816 L81.8385004,25.8237029 C81.5428993,24.1607765 80.6561655,22.561889 79.1968046,21.016263 L76.758391,22.4233118 L74.8926742,21.3466789 L77.4234066,19.8862991 Z" id="Fill-9" fill="url(#linearGradient-7)"></path>
                    <g transform="translate(93.527314, 0.760388)">
                        <mask id="mask-9" fill="white">
                            <use xlink:href="#path-8"></use>
                        </mask>
                        <g id="Clip-12"></g>
                        <path d="M3.70915172,8.25371294 L5.44887586,9.28176 L15.6854966,3.23256 L13.9458414,2.20451294 L3.70915172,8.25371294 Z M11.1074276,12.0196659 L9.3128069,10.9591482 L14.1839103,8.08056 C13.6528069,7.93994824 13.1401172,7.81006588 12.6456345,7.71265412 L14.348669,6.31670118 C14.9163931,6.47898353 15.5390138,6.67380706 16.1982552,6.89023059 L21.7835655,3.58966588 L23.5782552,4.65018353 L15.6855655,9.31423059 C16.0884621,9.59559529 16.454669,9.87696 16.7842552,10.1583247 L23.6148069,6.12194824 C26.1236345,7.73432471 27.4970828,8.71910118 27.7901172,9.06540706 C28.0648069,9.42251294 28.0281172,9.79041882 27.698531,10.1583247 C27.3506,10.5371012 26.3068069,11.2621835 24.5304621,12.3118306 L24.3473586,12.4200424 L22.1132207,11.7058306 C22.5527379,11.4894071 22.9555655,11.2729129 23.3584621,11.0348894 C24.2557724,10.5046306 24.768531,10.1367247 24.9517034,9.94190118 C25.0981862,9.76874824 25.1164621,9.60646588 25.0066,9.45498353 C24.8601172,9.32510118 24.3107379,8.93552471 23.3950828,8.28618353 L17.9928759,11.4785365 C18.9634966,12.9611012 19.0184621,14.5302071 18.1028069,16.1967247 L15.392531,15.8287482 C16.6194966,13.8701365 16.0517724,12.0846071 13.7443931,10.46136 L11.1074276,12.0196659 Z M8.54370345,11.1106306 C12.0597034,13.2099953 14.3121172,15.4716424 15.282669,17.9065129 L12.5724621,17.9931247 C11.8033586,16.0669129 9.80728966,14.1514306 6.62087586,12.2468894 L0.0100482759,8.34032471 L5.99818621,4.80166588 C5.44887586,4.65018353 4.91777241,4.53117176 4.42328966,4.43376 L6.16301379,3.01613647 C6.76728966,3.17848941 7.40825517,3.36244235 8.08577241,3.56806588 L14.0556345,0.0402070588 L19.3297034,3.15681882 L7.2068069,10.3206071 L8.54370345,11.1106306 Z" id="Fill-11" fill="url(#linearGradient-10)" mask="url(#mask-9)"></path>
                    </g>
                </g>
            </g>
        </g>
    </g>
</svg>